<svg xmlns="http://www.w3.org/2000/svg"  width="345" height="285" >
<g>
<line x1="40" y1="40"  x2="40" y2="240" style=" stroke: black;"/>
<line x1="40" y1="240"  x2="340" y2="240" style=" stroke: black;"/>
<line x1="37" y1="220"  x2="40" y2="220" style=" stroke: black;"/>
<text x="8" y="220" style="font-family: monospace; font-size: 8px;">0.02</text>
<line x1="37" y1="200"  x2="40" y2="200" style=" stroke: black;"/>
<text x="8" y="200" style="font-family: monospace; font-size: 8px;">0.05</text>
<line x1="37" y1="180"  x2="40" y2="180" style=" stroke: black;"/>
<text x="8" y="180" style="font-family: monospace; font-size: 8px;">0.07</text>
<line x1="37" y1="160"  x2="40" y2="160" style=" stroke: black;"/>
<text x="8" y="160" style="font-family: monospace; font-size: 8px;">0.10</text>
<line x1="37" y1="140"  x2="40" y2="140" style=" stroke: black;"/>
<text x="8" y="140" style="font-family: monospace; font-size: 8px;">0.12</text>
<line x1="37" y1="120"  x2="40" y2="120" style=" stroke: black;"/>
<text x="8" y="120" style="font-family: monospace; font-size: 8px;">0.15</text>
<line x1="37" y1="100"  x2="40" y2="100" style=" stroke: black;"/>
<text x="8" y="100" style="font-family: monospace; font-size: 8px;">0.17</text>
<line x1="37" y1="80"  x2="40" y2="80" style=" stroke: black;"/>
<text x="8" y="80" style="font-family: monospace; font-size: 8px;">0.20</text>
<line x1="37" y1="60"  x2="40" y2="60" style=" stroke: black;"/>
<text x="8" y="60" style="font-family: monospace; font-size: 8px;">0.22</text>
<line x1="37" y1="40"  x2="40" y2="40" style=" stroke: black;"/>
<text x="8" y="40" style="font-family: monospace; font-size: 8px;">0.25</text>
<line x1="70" y1="240"  x2="70" y2="245" style=" stroke: black;"/>
<text x="70" y="245" transform="rotate(90,70,245)" style="font-family: monospace; font-size: 8px;">357</text>
<line x1="100" y1="240"  x2="100" y2="245" style=" stroke: black;"/>
<text x="100" y="245" transform="rotate(90,100,245)" style="font-family: monospace; font-size: 8px;">714</text>
<line x1="130" y1="240"  x2="130" y2="245" style=" stroke: black;"/>
<text x="130" y="245" transform="rotate(90,130,245)" style="font-family: monospace; font-size: 8px;">1071</text>
<line x1="160" y1="240"  x2="160" y2="245" style=" stroke: black;"/>
<text x="160" y="245" transform="rotate(90,160,245)" style="font-family: monospace; font-size: 8px;">1428</text>
<line x1="190" y1="240"  x2="190" y2="245" style=" stroke: black;"/>
<text x="190" y="245" transform="rotate(90,190,245)" style="font-family: monospace; font-size: 8px;">1785</text>
<line x1="220" y1="240"  x2="220" y2="245" style=" stroke: black;"/>
<text x="220" y="245" transform="rotate(90,220,245)" style="font-family: monospace; font-size: 8px;">2142</text>
<line x1="250" y1="240"  x2="250" y2="245" style=" stroke: black;"/>
<text x="250" y="245" transform="rotate(90,250,245)" style="font-family: monospace; font-size: 8px;">2499</text>
<line x1="280" y1="240"  x2="280" y2="245" style=" stroke: black;"/>
<text x="280" y="245" transform="rotate(90,280,245)" style="font-family: monospace; font-size: 8px;">2856</text>
<line x1="310" y1="240"  x2="310" y2="245" style=" stroke: black;"/>
<text x="310" y="245" transform="rotate(90,310,245)" style="font-family: monospace; font-size: 8px;">3213</text>
<line x1="340" y1="240"  x2="340" y2="245" style=" stroke: black;"/>
<text x="340" y="245" transform="rotate(90,340,245)" style="font-family: monospace; font-size: 8px;">3570</text>
<text x="5" y="8" style="font-family: monospace; font-size: 10px;">Dist. Dt</text>
<text x="320" y="230" style="font-family: monospace; font-size: 10px;">Rank</text>
<polyline style="stroke: #00a5eb; stroke-width:1;fill: none;"  points="40 240,41 240,42 240,43 240,44 240,45 240,46 240,46 237,47 237,48 237,49 237,50 237,51 237,52 237,53 237,54 237,55 237,56 237,57 237,58 237,59 237,60 237,61 237,61 235,62 235,63 235,64 235,65 235,66 235,67 235,68 235,69 235,70 235,71 235,72 235,73 235,74 235,74 233,75 233,76 233,77 233,78 233,79 233,80 233,81 233,82 233,83 233,84 233,85 233,86 233,87 233,88 233,88 231,89 231,90 231,91 231,92 231,93 231,94 231,95 231,96 231,96 229,97 229,98 229,99 229,99 228,99 226,100 226,101 226,102 226,102 224,103 224,103 222,103 217,103 202,104 202,104 201,104 199,105 199,106 199,107 199,107 198,107 197,108 197,109 197,110 197,111 197,112 197,113 197,114 197,115 197,116 197,117 197,118 197,118 196,119 196,120 196,120 195,121 195,122 195,123 195,124 195,125 195,126 195,127 195,128 195,129 195,130 195,131 195,132 195,133 195,133 194,134 194,135 194,135 192,136 192,137 192,138 192,139 192,140 192,141 192,142 192,143 192,144 192,145 192,146 192,146 191,146 190,147 190,148 190,149 190,150 190,151 190,151 188,152 188,153 188,154 188,154 185,155 185,155 184,155 183,156 183,157 183,157 182,157 181,158 181,159 181,159 180,159 179,159 178,160 178,161 178,162 178,162 176,163 176,164 176,164 175,164 173,165 173,166 173,166 171,167 171,167 169,167 168,167 166,168 166,168 164,168 163,168 159,169 157,169 156,169 154,170 154,170 152,170 149,171 149,171 147,172 147,172 146,172 145,173 145,173 144,173 143,173 142,174 142,174 141,174 140,175 140,175 139,175 138,175 137,176 136,176 134,176 133,176 131,176 126,176 119,177 116,177 113,177 111,177 109,177 108,178 107,178 106,179 106,179 105,179 103,180 103,180 102,181 102,182 102,182 101,182 100,183 100,183 99,184 99,185 99,185 98,185 97,186 97,187 97,187 96,188 96,189 96,189 95,189 94,190 94,191 94,192 94,192 93,193 93,194 93,195 93,195 92,196 92,196 91,197 91,198 91,199 91,199 90,200 90,201 90,202 90,202 89,203 89,203 88,204 88,205 88,206 88,207 88,208 88,209 88,209 87,210 87,211 87,211 86,212 86,213 86,213 85,214 85,215 85,216 85,217 85,218 85,219 85,220 84,221 84,222 84,222 83,223 83,224 83,225 83,226 83,227 83,227 82,228 82,229 82,230 82,231 82,232 82,233 82,233 81,234 81,234 80,235 80,236 80,237 80,238 80,239 80,240 80,241 80,241 79,242 79,243 79,244 79,245 79,246 79,246 78,247 78,248 78,248 77,249 77,250 77,251 77,252 77,253 77,254 77,255 77,255 76,256 76,257 76,258 76,259 76,260 76,261 76,261 75,262 75,263 75,264 75,265 75,266 75,267 75,268 75,269 75,270 75,270 74,271 74,272 74,273 74,274 74,275 74,276 74,276 73,277 73,278 73,279 73,280 73,280 72,281 72,282 72,283 72,284 72,285 72,286 72,287 72,287 71,288 71,289 71,290 71,291 71,292 71,292 70,293 70,294 70,295 70,296 70,296 69,297 69,298 69,299 69,300 69,301 69,302 69,302 68,303 68,304 68,305 68,306 68,306 67,307 67,308 67,309 67,309 66,310 66,311 66,312 66,313 66,313 65,314 65,315 65,316 65,317 65,317 64,318 64,319 64,320 64,320 63,321 63,322 63,322 62,323 62,324 62,325 62,325 61,326 61,326 60,327 60,328 60,329 60,329 59,330 59,331 58,331 57,332 57,333 57,333 56,334 56,334 55,335 55,335 54,336 54,336 53,337 52,338 52,338 51,339 50,339 49,339 45,339 39"/><line id="CutDis10" visibility="hidden" x1="40" y1="237"  x2="340" y2="237" style=" stroke: red;"/>
<line id="CutDis9" visibility="hidden" x1="40" y1="232"  x2="340" y2="232" style=" stroke: red;"/>
<line id="CutDis8" visibility="hidden" x1="40" y1="233"  x2="340" y2="233" style=" stroke: red;"/>
<line id="CutDis7" visibility="hidden" x1="40" y1="114"  x2="340" y2="114" style=" stroke: red;"/>
<line id="CutDis6" visibility="hidden" x1="40" y1="194"  x2="340" y2="194" style=" stroke: red;"/>
<line id="CutDis5" visibility="hidden" x1="40" y1="231"  x2="340" y2="231" style=" stroke: red;"/>
<line id="CutDis4" visibility="hidden" x1="40" y1="164"  x2="340" y2="164" style=" stroke: red;"/>
<line id="CutDis3" visibility="hidden" x1="40" y1="177"  x2="340" y2="177" style=" stroke: red;"/>
<line id="CutDis2" visibility="hidden" x1="40" y1="139"  x2="340" y2="139" style=" stroke: red;"/>
<line id="CutDis1" visibility="hidden" x1="40" y1="216"  x2="340" y2="216" style=" stroke: red;"/>

</g>
</svg>
