<?xml version="1.0" standalone="no"?>
<!DOCTYPE svg PUBLIC "-//W3C//DTD SVG 1.1//EN"
"http://www.w3.org/Graphics/SVG/1.1/DTD/svg11.dtd">
<svg xmlns="http://www.w3.org/2000/svg"
width="745" height="545" >
<g>
<line x1="40" y1="40"  x2="40" y2="500" style=" stroke: black;"/>
<line x1="40" y1="500"  x2="700" y2="500" style=" stroke: black;"/>
<line x1="37" y1="454"  x2="40" y2="454" style=" stroke: black;"/>
<text x="8" y="454" style="font-family: monospace; font-size: 10px;">0.01</text>
<line x1="37" y1="408"  x2="40" y2="408" style=" stroke: black;"/>
<text x="8" y="408" style="font-family: monospace; font-size: 10px;">0.01</text>
<line x1="37" y1="362"  x2="40" y2="362" style=" stroke: black;"/>
<text x="8" y="362" style="font-family: monospace; font-size: 10px;">0.02</text>
<line x1="37" y1="316"  x2="40" y2="316" style=" stroke: black;"/>
<text x="8" y="316" style="font-family: monospace; font-size: 10px;">0.02</text>
<line x1="37" y1="270"  x2="40" y2="270" style=" stroke: black;"/>
<text x="8" y="270" style="font-family: monospace; font-size: 10px;">0.03</text>
<line x1="37" y1="224"  x2="40" y2="224" style=" stroke: black;"/>
<text x="8" y="224" style="font-family: monospace; font-size: 10px;">0.04</text>
<line x1="37" y1="178"  x2="40" y2="178" style=" stroke: black;"/>
<text x="8" y="178" style="font-family: monospace; font-size: 10px;">0.04</text>
<line x1="37" y1="132"  x2="40" y2="132" style=" stroke: black;"/>
<text x="8" y="132" style="font-family: monospace; font-size: 10px;">0.05</text>
<line x1="37" y1="86"  x2="40" y2="86" style=" stroke: black;"/>
<text x="8" y="86" style="font-family: monospace; font-size: 10px;">0.05</text>
<line x1="37" y1="40"  x2="40" y2="40" style=" stroke: black;"/>
<text x="8" y="40" style="font-family: monospace; font-size: 10px;">0.06</text>
<line x1="106" y1="500"  x2="106" y2="505" style=" stroke: black;"/>
<text x="106" y="505" transform="rotate(90,106,505)" style="font-family: monospace; font-size: 10px;">99</text>
<line x1="172" y1="500"  x2="172" y2="505" style=" stroke: black;"/>
<text x="172" y="505" transform="rotate(90,172,505)" style="font-family: monospace; font-size: 10px;">198</text>
<line x1="238" y1="500"  x2="238" y2="505" style=" stroke: black;"/>
<text x="238" y="505" transform="rotate(90,238,505)" style="font-family: monospace; font-size: 10px;">297</text>
<line x1="304" y1="500"  x2="304" y2="505" style=" stroke: black;"/>
<text x="304" y="505" transform="rotate(90,304,505)" style="font-family: monospace; font-size: 10px;">396</text>
<line x1="370" y1="500"  x2="370" y2="505" style=" stroke: black;"/>
<text x="370" y="505" transform="rotate(90,370,505)" style="font-family: monospace; font-size: 10px;">495</text>
<line x1="436" y1="500"  x2="436" y2="505" style=" stroke: black;"/>
<text x="436" y="505" transform="rotate(90,436,505)" style="font-family: monospace; font-size: 10px;">594</text>
<line x1="502" y1="500"  x2="502" y2="505" style=" stroke: black;"/>
<text x="502" y="505" transform="rotate(90,502,505)" style="font-family: monospace; font-size: 10px;">693</text>
<line x1="568" y1="500"  x2="568" y2="505" style=" stroke: black;"/>
<text x="568" y="505" transform="rotate(90,568,505)" style="font-family: monospace; font-size: 10px;">792</text>
<line x1="634" y1="500"  x2="634" y2="505" style=" stroke: black;"/>
<text x="634" y="505" transform="rotate(90,634,505)" style="font-family: monospace; font-size: 10px;">891</text>
<line x1="700" y1="500"  x2="700" y2="505" style=" stroke: black;"/>
<text x="700" y="505" transform="rotate(90,700,505)" style="font-family: monospace; font-size: 10px;">990</text>
<text x="705" y="490" style="font-family: monospace; font-size: 10px;">Rank</text>
<text x="5" y="15" style="font-family: monospace; font-size: 10px;">Dist. value</text>
<polyline style="stroke: #D82424; stroke-width:1;fill: none;"  points="40 500,41 500,42 500,43 500,44 500,45 500,46 500,47 500,48 500,49 500,50 500,51 500,52 500,53 500,54 500,55 500,56 500,57 500,58 500,59 500,60 500,61 500,62 500,63 500,64 500,65 500,66 500,67 500,68 500,69 500,70 500,71 500,72 500,73 500,74 500,75 500,76 500,77 500,78 500,79 500,80 500,81 500,82 500,83 500,84 500,85 500,86 500,87 500,88 500,89 500,90 500,91 500,92 500,93 500,94 500,95 500,96 500,97 500,98 500,99 500,100 500,101 500,102 500,103 500,104 500,105 500,106 500,107 500,108 500,109 500,110 500,111 500,112 500,113 500,114 500,115 500,116 500,117 500,118 500,119 500,120 500,121 500,122 500,123 500,124 500,125 500,126 500,127 500,128 500,129 500,130 500,131 500,132 500,133 500,134 500,135 500,136 500,137 500,138 484,139 484,140 484,141 484,142 484,143 484,144 484,145 484,146 484,147 484,148 484,149 484,150 484,151 484,152 484,153 484,154 484,155 484,156 484,157 484,158 484,159 484,160 484,161 484,162 484,163 484,164 484,165 484,166 484,167 484,168 484,169 484,170 484,171 484,172 484,173 484,174 484,175 484,176 484,177 484,178 484,179 484,180 484,181 484,182 484,183 484,184 484,185 484,186 484,187 484,188 484,189 484,190 484,191 484,192 484,193 484,194 484,195 484,196 484,197 484,198 484,199 484,200 484,201 484,202 484,203 484,204 484,205 484,206 484,207 484,208 484,209 484,210 484,211 484,212 484,213 484,214 484,215 484,216 484,217 484,218 484,219 484,220 484,221 484,222 484,223 484,224 484,225 484,226 484,227 484,228 484,229 484,230 484,231 484,232 484,233 484,234 484,235 484,236 469,237 469,238 469,239 469,240 469,241 469,242 469,243 469,244 469,245 469,246 469,247 469,248 469,249 469,250 469,251 469,252 469,253 469,254 469,255 469,256 469,257 469,258 469,259 469,260 469,261 469,262 469,263 469,264 469,265 469,266 469,267 469,268 469,269 469,270 469,271 469,272 469,272 468,273 468,274 468,275 468,276 468,277 468,278 468,279 468,280 468,281 454,282 454,283 454,284 454,285 454,286 454,287 454,288 454,289 454,290 454,291 454,292 454,293 454,294 452,295 452,296 452,297 452,298 452,298 439,299 439,300 439,301 438,302 437,302 423,303 423,304 423,305 423,306 423,307 423,308 408,309 408,310 408,311 408,312 408,313 408,314 408,315 408,316 408,317 408,318 408,319 408,320 408,321 408,322 408,323 408,324 408,325 408,326 408,327 408,328 408,329 408,330 408,331 408,332 408,333 408,334 408,335 408,336 408,337 408,338 408,338 407,339 407,340 407,341 407,342 407,343 407,344 393,345 393,346 393,347 393,348 393,349 393,350 393,351 393,352 393,353 393,354 393,355 393,356 393,357 393,358 393,359 393,360 392,361 392,362 392,363 392,364 392,365 392,366 392,367 392,368 392,369 392,370 392,371 392,372 392,372 377,373 377,374 377,375 377,376 377,377 377,378 377,379 377,380 377,381 377,382 377,383 377,384 377,384 376,385 376,386 362,387 362,388 362,389 361,390 361,390 330,391 330,392 330,393 329,394 315,395 315,396 315,396 314,397 313,398 300,399 300,400 300,401 300,402 300,403 300,404 300,405 300,406 299,407 299,408 299,409 299,410 298,410 297,411 297,412 297,413 284,414 284,414 283,415 283,416 283,417 283,418 283,419 283,420 282,421 268,422 268,423 268,424 268,425 268,426 268,427 268,428 268,429 268,430 268,430 267,431 252,432 252,433 252,434 252,435 252,436 252,437 252,438 252,439 252,440 252,441 252,442 252,443 252,444 252,445 252,446 252,447 252,448 252,449 252,450 252,451 252,452 252,452 251,453 251,454 251,455 250,456 250,456 249,457 249,458 237,459 237,460 237,461 237,462 237,463 237,464 237,465 237,466 237,467 237,468 237,469 237,470 237,471 237,472 237,473 237,474 237,475 237,476 237,477 237,478 237,479 237,480 237,481 237,482 237,483 237,484 237,485 237,486 237,486 236,487 236,488 236,489 236,490 236,491 236,492 236,492 235,493 234,494 234,495 234,496 234,497 234,498 234,499 234,500 234,501 234,502 234,503 234,504 234,505 234,506 234,506 233,507 233,508 232,509 221,510 221,511 221,512 221,513 221,514 221,515 221,516 221,517 221,518 221,519 221,520 221,521 220,522 220,523 220,524 220,525 220,526 220,526 219,527 219,528 219,529 219,530 219,531 219,532 219,533 218,534 218,535 218,536 218,537 217,538 217,539 205,540 205,541 205,542 205,543 205,544 205,545 205,546 205,547 205,548 205,549 205,550 205,551 205,552 205,553 205,554 205,555 204,556 204,557 204,558 204,559 204,560 204,561 204,562 204,563 204,564 204,565 203,566 203,567 203,568 203,568 202,569 202,570 202,571 202,572 202,573 192,574 189,575 189,576 189,577 189,578 189,579 189,580 189,581 189,582 189,583 189,584 189,585 189,586 189,587 189,588 189,589 189,590 189,591 189,592 189,593 189,594 189,595 189,596 189,597 189,598 189,599 189,600 189,601 189,602 189,603 189,604 189,605 189,606 189,606 188,607 188,608 188,609 188,610 188,611 188,612 188,613 188,614 188,615 188,616 188,617 188,618 188,619 188,620 188,621 188,622 188,622 187,623 187,624 187,625 187,626 187,627 187,628 187,629 186,630 186,631 186,632 186,633 186,634 186,635 186,636 186,637 184,638 184,638 173,639 173,640 173,641 173,642 173,643 173,644 173,645 173,646 173,647 173,648 173,649 173,650 173,651 173,652 173,653 173,654 173,655 173,656 172,657 172,658 172,659 172,660 172,661 172,662 172,663 171,664 171,665 171,666 170,667 170,668 157,669 157,670 157,670 156,671 154,672 139,672 122,673 122,674 122,675 122,676 122,677 118,678 106,679 106,680 104,680 90,681 90,682 90,683 89,684 87,684 73,685 73,686 72,686 57,687 57,688 57,689 57,690 57,691 57,692 57,692 56,693 56,694 53,695 40,696 40,697 40,698 40,699 40"/></g>
</svg>
