<svg xmlns="http://www.w3.org/2000/svg"  width="345" height="285" >
<g>
<line x1="40" y1="40"  x2="40" y2="240" style=" stroke: black;"/>
<line x1="40" y1="240"  x2="340" y2="240" style=" stroke: black;"/>
<line x1="37" y1="220"  x2="40" y2="220" style=" stroke: black;"/>
<text x="8" y="220" style="font-family: monospace; font-size: 8px;">0.01</text>
<line x1="37" y1="200"  x2="40" y2="200" style=" stroke: black;"/>
<text x="8" y="200" style="font-family: monospace; font-size: 8px;">0.01</text>
<line x1="37" y1="180"  x2="40" y2="180" style=" stroke: black;"/>
<text x="8" y="180" style="font-family: monospace; font-size: 8px;">0.02</text>
<line x1="37" y1="160"  x2="40" y2="160" style=" stroke: black;"/>
<text x="8" y="160" style="font-family: monospace; font-size: 8px;">0.03</text>
<line x1="37" y1="140"  x2="40" y2="140" style=" stroke: black;"/>
<text x="8" y="140" style="font-family: monospace; font-size: 8px;">0.04</text>
<line x1="37" y1="120"  x2="40" y2="120" style=" stroke: black;"/>
<text x="8" y="120" style="font-family: monospace; font-size: 8px;">0.04</text>
<line x1="37" y1="100"  x2="40" y2="100" style=" stroke: black;"/>
<text x="8" y="100" style="font-family: monospace; font-size: 8px;">0.05</text>
<line x1="37" y1="80"  x2="40" y2="80" style=" stroke: black;"/>
<text x="8" y="80" style="font-family: monospace; font-size: 8px;">0.06</text>
<line x1="37" y1="60"  x2="40" y2="60" style=" stroke: black;"/>
<text x="8" y="60" style="font-family: monospace; font-size: 8px;">0.06</text>
<line x1="37" y1="40"  x2="40" y2="40" style=" stroke: black;"/>
<text x="8" y="40" style="font-family: monospace; font-size: 8px;">0.07</text>
<line x1="70" y1="240"  x2="70" y2="245" style=" stroke: black;"/>
<text x="70" y="245" transform="rotate(90,70,245)" style="font-family: monospace; font-size: 8px;">208</text>
<line x1="100" y1="240"  x2="100" y2="245" style=" stroke: black;"/>
<text x="100" y="245" transform="rotate(90,100,245)" style="font-family: monospace; font-size: 8px;">416</text>
<line x1="130" y1="240"  x2="130" y2="245" style=" stroke: black;"/>
<text x="130" y="245" transform="rotate(90,130,245)" style="font-family: monospace; font-size: 8px;">624</text>
<line x1="160" y1="240"  x2="160" y2="245" style=" stroke: black;"/>
<text x="160" y="245" transform="rotate(90,160,245)" style="font-family: monospace; font-size: 8px;">832</text>
<line x1="190" y1="240"  x2="190" y2="245" style=" stroke: black;"/>
<text x="190" y="245" transform="rotate(90,190,245)" style="font-family: monospace; font-size: 8px;">1040</text>
<line x1="220" y1="240"  x2="220" y2="245" style=" stroke: black;"/>
<text x="220" y="245" transform="rotate(90,220,245)" style="font-family: monospace; font-size: 8px;">1248</text>
<line x1="250" y1="240"  x2="250" y2="245" style=" stroke: black;"/>
<text x="250" y="245" transform="rotate(90,250,245)" style="font-family: monospace; font-size: 8px;">1456</text>
<line x1="280" y1="240"  x2="280" y2="245" style=" stroke: black;"/>
<text x="280" y="245" transform="rotate(90,280,245)" style="font-family: monospace; font-size: 8px;">1664</text>
<line x1="310" y1="240"  x2="310" y2="245" style=" stroke: black;"/>
<text x="310" y="245" transform="rotate(90,310,245)" style="font-family: monospace; font-size: 8px;">1872</text>
<line x1="340" y1="240"  x2="340" y2="245" style=" stroke: black;"/>
<text x="340" y="245" transform="rotate(90,340,245)" style="font-family: monospace; font-size: 8px;">2080</text>
<text x="5" y="8" style="font-family: monospace; font-size: 10px;">Dist. Dt</text>
<text x="320" y="230" style="font-family: monospace; font-size: 10px;">Rank</text>
<polyline style="stroke: #00a5eb; stroke-width:1;fill: none;"  points="40 240,41 240,42 240,43 240,44 240,45 240,46 240,47 240,48 240,49 240,50 240,51 240,52 240,53 240,54 240,55 240,56 240,57 240,58 240,59 240,60 240,61 240,62 240,63 240,64 240,65 240,66 240,67 240,68 240,69 240,70 240,70 234,71 234,72 234,73 234,74 234,75 234,76 234,77 234,78 234,79 234,80 234,81 234,82 234,83 234,84 234,85 234,86 234,87 234,88 234,89 234,90 234,91 234,92 234,93 234,94 234,95 234,96 234,97 234,98 228,99 228,100 228,101 228,102 228,103 228,104 228,105 228,106 228,107 228,108 228,109 228,110 228,110 223,111 223,112 223,113 223,114 222,115 217,116 216,116 211,117 211,117 206,118 206,119 206,120 206,121 206,122 206,123 206,124 206,125 206,125 205,126 205,126 200,127 200,128 200,129 200,130 200,131 200,132 200,132 199,132 194,133 194,134 194,135 194,135 193,135 189,136 189,136 177,137 177,137 176,137 171,138 171,138 166,139 166,140 166,141 165,141 160,142 160,143 159,143 155,143 154,144 154,145 154,145 149,146 149,146 148,147 148,148 148,149 148,150 148,151 148,151 147,152 147,152 146,152 145,152 143,153 143,153 142,154 142,155 142,156 142,157 142,158 142,159 142,160 142,161 142,162 141,163 141,164 141,164 140,164 137,165 137,166 137,167 136,168 136,169 136,170 136,170 135,171 134,171 132,171 131,172 131,173 131,174 131,175 131,176 131,177 131,177 130,178 130,179 130,179 129,180 128,180 126,181 126,181 125,182 125,183 125,184 125,185 125,186 125,187 125,188 125,189 125,190 125,191 125,192 124,193 124,194 124,195 124,195 123,196 122,196 121,196 120,196 119,197 119,198 119,199 119,200 119,201 119,201 118,202 118,203 118,203 115,203 114,203 113,204 113,204 112,205 112,205 108,205 107,206 107,207 107,207 106,208 106,209 105,209 102,210 101,211 101,212 101,213 101,213 100,214 100,215 100,216 100,216 99,216 98,217 96,217 95,218 95,219 94,220 94,221 94,222 94,222 93,222 89,223 89,224 89,225 89,226 89,226 88,227 88,228 88,229 88,230 88,231 87,231 85,232 85,232 83,233 83,234 83,235 83,236 83,237 83,238 83,238 82,239 82,240 82,241 82,242 82,243 82,244 82,245 82,246 82,247 82,247 81,248 81,249 81,249 79,250 78,250 77,251 77,252 77,253 77,254 77,255 77,256 77,257 77,258 77,259 77,259 76,260 76,261 76,262 76,263 76,264 76,265 76,266 76,267 76,268 76,269 76,270 76,270 75,271 75,271 74,272 74,272 73,273 71,274 71,275 71,276 71,277 71,278 71,279 71,280 71,281 71,282 71,283 71,284 71,285 71,285 70,286 70,287 70,288 70,289 70,290 70,291 70,292 70,292 69,293 69,293 68,294 68,294 65,295 65,296 65,297 65,298 65,299 65,300 65,301 65,302 65,303 65,304 65,305 65,306 65,306 64,307 64,308 64,309 64,309 63,309 62,309 61,310 61,310 59,311 59,312 59,313 59,314 59,315 59,316 59,317 59,318 59,318 58,319 58,320 58,321 58,322 58,322 57,322 55,322 53,323 53,324 53,325 53,326 53,327 53,328 53,328 52,329 52,330 52,331 52,331 51,332 51,332 47,333 47,334 47,334 46,335 46,336 46,336 45,337 45,337 41,338 40,338 39,339 39,339 39"/><line id="CutDis7" visibility="hidden" x1="40" y1="240"  x2="340" y2="240" style=" stroke: red;"/>
<line id="CutDis6" visibility="hidden" x1="40" y1="237"  x2="340" y2="237" style=" stroke: red;"/>
<line id="CutDis5" visibility="hidden" x1="40" y1="129"  x2="340" y2="129" style=" stroke: red;"/>
<line id="CutDis4" visibility="hidden" x1="40" y1="180"  x2="340" y2="180" style=" stroke: red;"/>
<line id="CutDis3" visibility="hidden" x1="40" y1="234"  x2="340" y2="234" style=" stroke: red;"/>
<line id="CutDis2" visibility="hidden" x1="40" y1="234"  x2="340" y2="234" style=" stroke: red;"/>
<line id="CutDis1" visibility="hidden" x1="40" y1="231"  x2="340" y2="231" style=" stroke: red;"/>

</g>
</svg>
