<svg xmlns="http://www.w3.org/2000/svg"  width="345" height="285" >
<g>
<line x1="40" y1="40"  x2="40" y2="240" style=" stroke: black;"/>
<line x1="40" y1="240"  x2="340" y2="240" style=" stroke: black;"/>
<line x1="37" y1="220"  x2="40" y2="220" style=" stroke: black;"/>
<text x="8" y="220" style="font-family: monospace; font-size: 8px;">0.01</text>
<line x1="37" y1="200"  x2="40" y2="200" style=" stroke: black;"/>
<text x="8" y="200" style="font-family: monospace; font-size: 8px;">0.01</text>
<line x1="37" y1="180"  x2="40" y2="180" style=" stroke: black;"/>
<text x="8" y="180" style="font-family: monospace; font-size: 8px;">0.02</text>
<line x1="37" y1="160"  x2="40" y2="160" style=" stroke: black;"/>
<text x="8" y="160" style="font-family: monospace; font-size: 8px;">0.02</text>
<line x1="37" y1="140"  x2="40" y2="140" style=" stroke: black;"/>
<text x="8" y="140" style="font-family: monospace; font-size: 8px;">0.03</text>
<line x1="37" y1="120"  x2="40" y2="120" style=" stroke: black;"/>
<text x="8" y="120" style="font-family: monospace; font-size: 8px;">0.04</text>
<line x1="37" y1="100"  x2="40" y2="100" style=" stroke: black;"/>
<text x="8" y="100" style="font-family: monospace; font-size: 8px;">0.04</text>
<line x1="37" y1="80"  x2="40" y2="80" style=" stroke: black;"/>
<text x="8" y="80" style="font-family: monospace; font-size: 8px;">0.05</text>
<line x1="37" y1="60"  x2="40" y2="60" style=" stroke: black;"/>
<text x="8" y="60" style="font-family: monospace; font-size: 8px;">0.05</text>
<line x1="37" y1="40"  x2="40" y2="40" style=" stroke: black;"/>
<text x="8" y="40" style="font-family: monospace; font-size: 8px;">0.06</text>
<line x1="70" y1="240"  x2="70" y2="245" style=" stroke: black;"/>
<text x="70" y="245" transform="rotate(90,70,245)" style="font-family: monospace; font-size: 8px;">99</text>
<line x1="100" y1="240"  x2="100" y2="245" style=" stroke: black;"/>
<text x="100" y="245" transform="rotate(90,100,245)" style="font-family: monospace; font-size: 8px;">198</text>
<line x1="130" y1="240"  x2="130" y2="245" style=" stroke: black;"/>
<text x="130" y="245" transform="rotate(90,130,245)" style="font-family: monospace; font-size: 8px;">297</text>
<line x1="160" y1="240"  x2="160" y2="245" style=" stroke: black;"/>
<text x="160" y="245" transform="rotate(90,160,245)" style="font-family: monospace; font-size: 8px;">396</text>
<line x1="190" y1="240"  x2="190" y2="245" style=" stroke: black;"/>
<text x="190" y="245" transform="rotate(90,190,245)" style="font-family: monospace; font-size: 8px;">495</text>
<line x1="220" y1="240"  x2="220" y2="245" style=" stroke: black;"/>
<text x="220" y="245" transform="rotate(90,220,245)" style="font-family: monospace; font-size: 8px;">594</text>
<line x1="250" y1="240"  x2="250" y2="245" style=" stroke: black;"/>
<text x="250" y="245" transform="rotate(90,250,245)" style="font-family: monospace; font-size: 8px;">693</text>
<line x1="280" y1="240"  x2="280" y2="245" style=" stroke: black;"/>
<text x="280" y="245" transform="rotate(90,280,245)" style="font-family: monospace; font-size: 8px;">792</text>
<line x1="310" y1="240"  x2="310" y2="245" style=" stroke: black;"/>
<text x="310" y="245" transform="rotate(90,310,245)" style="font-family: monospace; font-size: 8px;">891</text>
<line x1="340" y1="240"  x2="340" y2="245" style=" stroke: black;"/>
<text x="340" y="245" transform="rotate(90,340,245)" style="font-family: monospace; font-size: 8px;">990</text>
<text x="5" y="8" style="font-family: monospace; font-size: 10px;">Dist. Dt</text>
<text x="320" y="230" style="font-family: monospace; font-size: 10px;">Rank</text>
<polyline style="stroke: #00a5eb; stroke-width:1;fill: none;"  points="40 240,41 240,42 240,43 240,44 240,45 240,46 240,47 240,48 240,49 240,50 240,51 240,52 240,53 240,54 240,55 240,56 240,57 240,58 240,59 240,60 240,61 240,62 240,63 240,64 240,65 240,66 240,67 240,68 240,69 240,70 240,71 240,72 240,73 240,74 240,75 240,76 240,77 240,78 240,79 240,80 240,81 240,82 240,83 240,84 240,84 233,85 233,86 233,87 233,88 233,89 233,90 233,91 233,92 233,93 233,94 233,95 233,96 233,97 233,98 233,99 233,100 233,101 233,102 233,103 233,104 233,105 233,106 233,107 233,108 233,109 233,110 233,111 233,112 233,113 233,114 233,115 233,116 233,117 233,118 233,119 233,120 233,121 233,122 233,123 233,124 233,125 233,126 233,127 233,128 233,129 226,130 226,131 226,132 226,133 226,134 226,135 226,136 226,137 226,138 226,139 226,140 226,141 226,142 226,143 226,144 226,145 226,146 226,147 226,148 226,149 226,149 220,150 220,151 220,152 220,153 220,154 220,155 220,155 219,156 219,157 219,157 213,158 213,159 212,159 206,160 206,161 206,161 200,162 200,163 200,164 200,165 200,166 200,167 200,168 200,169 200,170 200,171 200,172 200,173 200,174 200,175 200,175 199,176 199,177 199,178 193,179 193,180 193,181 193,182 193,183 193,184 193,185 193,186 193,187 193,188 193,189 193,190 193,191 186,192 186,193 186,194 186,195 186,196 186,197 180,198 180,198 179,199 179,199 166,200 166,200 165,200 159,201 159,202 159,202 153,203 153,204 153,205 153,206 153,206 152,207 152,208 152,209 152,209 151,209 146,210 146,211 146,211 145,212 145,213 145,213 139,214 139,215 139,216 139,217 139,217 138,217 132,218 132,219 132,220 132,221 132,222 132,223 132,224 132,225 132,226 132,227 132,227 131,228 131,229 131,230 125,231 125,232 125,233 125,234 125,235 125,236 125,237 125,238 125,239 125,240 125,241 125,242 125,243 125,244 125,245 125,245 124,246 124,247 124,248 124,249 124,250 124,251 124,252 124,252 123,253 123,253 118,254 118,255 118,256 118,257 118,258 118,259 118,260 118,261 118,262 118,263 118,264 117,265 117,266 117,266 111,267 111,268 111,269 111,270 111,271 111,272 111,273 111,274 111,275 111,276 111,277 111,278 111,279 111,280 111,280 110,281 110,282 110,282 106,282 104,283 104,284 104,285 104,286 104,287 104,288 104,289 104,290 104,291 104,292 104,293 104,294 104,295 104,296 104,297 104,298 104,299 104,300 104,301 104,302 104,303 104,304 104,305 104,306 104,307 104,307 103,308 103,309 103,310 103,311 103,311 102,312 97,313 97,314 97,315 97,316 97,317 97,318 97,319 97,320 97,321 97,322 97,323 97,324 97,324 96,325 96,325 91,326 91,326 90,326 89,327 83,327 76,328 76,329 76,329 75,329 74,330 68,330 67,331 61,332 61,332 60,333 54,333 47,334 47,335 47,336 47,337 45,337 40,338 40,339 40,339 40"/><line id="CutDis5" visibility="hidden" x1="40" y1="240"  x2="340" y2="240" style=" stroke: red;"/>
<line id="CutDis4" visibility="hidden" x1="40" y1="236"  x2="340" y2="236" style=" stroke: red;"/>
<line id="CutDis3" visibility="hidden" x1="40" y1="233"  x2="340" y2="233" style=" stroke: red;"/>
<line id="CutDis2" visibility="hidden" x1="40" y1="166"  x2="340" y2="166" style=" stroke: red;"/>
<line id="CutDis1" visibility="hidden" x1="40" y1="229"  x2="340" y2="229" style=" stroke: red;"/>

</g>
</svg>
