<?xml version="1.0" standalone="no"?>
<!DOCTYPE svg PUBLIC "-//W3C//DTD SVG 1.1//EN"
"http://www.w3.org/Graphics/SVG/1.1/DTD/svg11.dtd">
<svg xmlns="http://www.w3.org/2000/svg"
width="745" height="545" >
<g>
<line x1="40" y1="40"  x2="40" y2="500" style=" stroke: black;"/>
<line x1="40" y1="500"  x2="700" y2="500" style=" stroke: black;"/>
<line x1="37" y1="454"  x2="40" y2="454" style=" stroke: black;"/>
<text x="8" y="454" style="font-family: monospace; font-size: 10px;">0.02</text>
<line x1="37" y1="408"  x2="40" y2="408" style=" stroke: black;"/>
<text x="8" y="408" style="font-family: monospace; font-size: 10px;">0.05</text>
<line x1="37" y1="362"  x2="40" y2="362" style=" stroke: black;"/>
<text x="8" y="362" style="font-family: monospace; font-size: 10px;">0.07</text>
<line x1="37" y1="316"  x2="40" y2="316" style=" stroke: black;"/>
<text x="8" y="316" style="font-family: monospace; font-size: 10px;">0.10</text>
<line x1="37" y1="270"  x2="40" y2="270" style=" stroke: black;"/>
<text x="8" y="270" style="font-family: monospace; font-size: 10px;">0.12</text>
<line x1="37" y1="224"  x2="40" y2="224" style=" stroke: black;"/>
<text x="8" y="224" style="font-family: monospace; font-size: 10px;">0.15</text>
<line x1="37" y1="178"  x2="40" y2="178" style=" stroke: black;"/>
<text x="8" y="178" style="font-family: monospace; font-size: 10px;">0.17</text>
<line x1="37" y1="132"  x2="40" y2="132" style=" stroke: black;"/>
<text x="8" y="132" style="font-family: monospace; font-size: 10px;">0.20</text>
<line x1="37" y1="86"  x2="40" y2="86" style=" stroke: black;"/>
<text x="8" y="86" style="font-family: monospace; font-size: 10px;">0.22</text>
<line x1="37" y1="40"  x2="40" y2="40" style=" stroke: black;"/>
<text x="8" y="40" style="font-family: monospace; font-size: 10px;">0.25</text>
<line x1="106" y1="500"  x2="106" y2="505" style=" stroke: black;"/>
<text x="106" y="505" transform="rotate(90,106,505)" style="font-family: monospace; font-size: 10px;">357</text>
<line x1="172" y1="500"  x2="172" y2="505" style=" stroke: black;"/>
<text x="172" y="505" transform="rotate(90,172,505)" style="font-family: monospace; font-size: 10px;">714</text>
<line x1="238" y1="500"  x2="238" y2="505" style=" stroke: black;"/>
<text x="238" y="505" transform="rotate(90,238,505)" style="font-family: monospace; font-size: 10px;">1071</text>
<line x1="304" y1="500"  x2="304" y2="505" style=" stroke: black;"/>
<text x="304" y="505" transform="rotate(90,304,505)" style="font-family: monospace; font-size: 10px;">1428</text>
<line x1="370" y1="500"  x2="370" y2="505" style=" stroke: black;"/>
<text x="370" y="505" transform="rotate(90,370,505)" style="font-family: monospace; font-size: 10px;">1785</text>
<line x1="436" y1="500"  x2="436" y2="505" style=" stroke: black;"/>
<text x="436" y="505" transform="rotate(90,436,505)" style="font-family: monospace; font-size: 10px;">2142</text>
<line x1="502" y1="500"  x2="502" y2="505" style=" stroke: black;"/>
<text x="502" y="505" transform="rotate(90,502,505)" style="font-family: monospace; font-size: 10px;">2499</text>
<line x1="568" y1="500"  x2="568" y2="505" style=" stroke: black;"/>
<text x="568" y="505" transform="rotate(90,568,505)" style="font-family: monospace; font-size: 10px;">2856</text>
<line x1="634" y1="500"  x2="634" y2="505" style=" stroke: black;"/>
<text x="634" y="505" transform="rotate(90,634,505)" style="font-family: monospace; font-size: 10px;">3213</text>
<line x1="700" y1="500"  x2="700" y2="505" style=" stroke: black;"/>
<text x="700" y="505" transform="rotate(90,700,505)" style="font-family: monospace; font-size: 10px;">3570</text>
<text x="705" y="490" style="font-family: monospace; font-size: 10px;">Rank</text>
<text x="5" y="15" style="font-family: monospace; font-size: 10px;">Dist. value</text>
<polyline style="stroke: #D82424; stroke-width:1;fill: none;"  points="40 500,41 500,42 500,43 500,44 500,45 500,46 500,47 500,48 500,49 500,50 500,51 500,52 500,53 500,53 495,54 495,55 495,56 495,57 495,58 495,59 495,60 495,61 495,62 495,63 495,64 495,65 495,66 495,67 495,68 495,69 495,70 495,71 495,72 495,73 495,74 495,75 495,76 495,77 495,78 495,79 495,79 494,80 494,81 494,82 494,83 494,84 494,85 494,86 494,86 490,87 490,88 490,89 490,90 490,91 490,92 490,93 490,94 490,95 490,96 490,97 490,98 490,99 490,100 490,101 490,102 490,103 490,104 490,105 490,106 490,107 490,108 490,109 490,110 490,111 490,112 490,113 490,114 489,115 489,116 489,116 485,117 485,118 485,119 485,120 485,121 485,122 485,123 485,124 485,125 485,126 485,127 485,128 485,129 485,130 485,131 485,132 485,133 485,134 485,135 485,136 485,137 485,137 484,138 484,139 484,140 484,141 484,142 484,143 484,144 484,145 484,146 484,146 480,147 480,148 480,149 480,150 480,151 480,152 480,153 480,154 480,155 480,156 480,157 480,158 479,159 479,160 479,161 479,162 479,163 479,164 479,164 475,165 475,166 475,167 475,167 474,168 474,169 474,170 474,171 474,171 469,172 469,173 469,174 469,175 469,176 469,177 469,177 464,178 464,179 464,179 459,180 459,180 449,180 413,180 412,181 412,181 407,182 407,183 407,184 407,185 407,186 407,187 407,188 406,189 406,189 405,189 402,190 402,191 402,192 402,193 402,194 402,195 402,196 402,197 402,198 402,199 402,200 402,201 402,202 402,203 402,204 402,205 402,206 402,207 402,208 402,209 402,210 402,211 402,211 401,212 401,213 401,213 400,214 400,215 400,216 400,216 397,217 397,218 397,219 397,220 397,221 397,222 397,223 397,224 397,225 397,226 397,227 397,228 397,229 397,230 397,231 397,232 397,233 397,233 396,234 396,235 396,236 396,237 396,238 396,239 396,240 396,241 396,242 396,243 396,244 396,245 396,246 396,246 395,247 395,248 395,249 395,249 391,250 391,251 391,252 391,253 391,254 391,255 391,256 391,257 391,258 391,259 391,260 391,261 391,262 391,263 391,264 391,265 391,266 391,267 391,268 391,269 391,270 391,271 391,271 390,272 390,272 389,273 389,273 386,274 386,275 386,276 386,277 386,278 386,279 386,280 386,281 386,282 386,283 386,284 386,285 385,285 381,286 381,287 381,288 381,289 381,290 381,290 380,291 375,292 375,293 375,294 375,294 374,294 373,294 372,294 369,295 369,296 369,297 369,298 369,298 367,298 364,299 364,300 364,301 364,302 364,302 363,303 363,303 362,303 361,303 358,304 358,305 358,306 358,307 358,308 358,308 353,309 353,310 353,311 353,312 353,313 353,313 352,313 347,314 347,315 347,316 347,317 347,318 347,318 342,319 342,320 342,320 337,321 337,321 336,321 335,321 331,321 330,322 330,322 326,322 325,323 325,323 314,323 313,323 309,324 309,324 308,325 308,325 304,326 304,326 302,327 298,327 292,328 292,328 291,329 291,329 288,329 287,330 287,330 286,330 285,330 283,331 283,331 282,331 281,332 281,333 281,333 279,333 277,334 277,334 275,335 275,335 274,335 273,335 272,336 271,337 271,337 270,337 269,337 268,338 268,338 266,338 265,338 264,339 263,339 262,340 257,340 256,340 255,340 250,340 239,340 223,341 223,341 222,341 216,341 215,341 210,342 204,342 200,342 198,343 198,343 197,343 196,343 193,344 193,344 191,345 191,346 189,346 186,346 185,347 185,348 185,349 185,349 184,350 184,350 183,351 183,352 183,352 182,353 182,353 181,353 179,354 179,355 179,356 178,356 177,357 177,357 176,358 176,359 176,360 175,360 174,360 173,361 173,361 172,362 172,362 171,363 171,364 171,364 170,365 170,366 170,366 169,367 169,368 169,369 169,369 168,369 166,369 165,370 165,370 164,371 164,372 164,373 164,374 164,375 164,376 164,376 163,377 163,378 163,379 163,380 163,380 162,381 162,382 161,383 161,383 160,383 159,384 159,385 158,386 158,387 158,388 158,389 158,390 158,391 157,392 157,393 157,394 157,395 156,396 156,396 155,396 154,397 153,398 152,399 152,400 151,401 151,402 151,403 151,404 151,405 151,406 151,407 151,408 151,409 151,409 150,410 150,411 150,412 150,413 150,413 149,414 149,415 149,416 149,416 148,417 148,417 147,418 147,419 147,419 146,420 146,421 146,421 145,422 145,423 145,424 145,425 145,426 145,427 145,428 145,429 145,429 144,430 144,431 144,432 144,433 144,434 144,435 144,436 143,437 143,438 143,439 143,439 142,440 142,440 141,440 140,441 140,442 140,443 140,444 140,445 140,445 139,446 139,447 139,448 139,449 139,450 139,451 139,452 139,452 138,453 138,453 137,454 137,455 137,456 137,457 137,458 137,459 137,460 137,460 136,461 136,462 136,463 136,464 136,464 135,465 135,466 135,467 135,467 134,468 134,468 133,469 133,470 133,471 133,472 133,473 133,474 133,475 133,476 133,477 133,477 132,478 132,479 132,480 132,481 132,482 132,483 132,483 131,484 131,485 131,486 131,487 131,488 131,489 131,490 131,491 130,492 130,493 129,494 129,495 129,496 129,497 129,497 128,498 128,498 127,499 127,500 127,501 127,502 127,503 127,504 127,505 127,506 127,507 127,508 127,508 126,509 126,510 126,511 126,512 126,512 125,513 125,514 125,514 124,515 124,516 124,517 124,518 124,519 124,520 124,521 124,522 124,523 124,524 124,525 124,525 123,526 123,527 123,528 123,528 122,529 122,530 122,530 121,531 121,532 121,532 120,533 120,534 120,535 120,536 120,537 120,538 120,539 120,540 120,541 120,542 120,543 120,544 120,545 120,546 120,547 120,547 119,548 119,549 119,550 119,551 119,552 118,553 118,554 118,555 118,556 118,557 118,558 118,559 118,560 118,560 117,561 117,562 117,563 117,564 117,564 116,565 116,566 116,567 116,568 116,568 115,569 114,570 114,571 114,572 114,573 114,574 114,575 114,576 114,577 114,578 114,579 114,580 114,581 114,582 114,583 114,584 113,585 113,586 113,587 113,587 112,588 112,588 111,589 111,590 111,591 111,592 111,593 111,594 111,595 111,596 111,596 110,597 110,598 109,599 109,600 109,601 109,602 109,603 109,604 109,604 108,605 108,606 108,606 107,607 107,608 107,609 107,610 107,611 107,612 107,613 107,614 107,615 107,616 107,617 107,617 106,618 106,619 106,619 105,620 105,621 105,622 105,623 105,624 105,625 105,626 105,626 104,627 104,628 104,629 103,630 103,630 102,631 102,632 102,632 101,633 101,634 101,635 101,636 101,637 101,638 101,639 101,640 100,640 99,641 99,642 99,643 99,643 98,644 98,645 98,646 98,647 98,648 98,649 98,649 97,650 97,651 97,652 97,653 96,654 96,655 96,656 96,656 95,656 94,657 94,658 94,659 94,660 94,660 93,661 93,661 92,662 92,662 91,663 91,664 91,665 91,665 90,666 90,667 90,668 89,669 89,670 89,671 89,671 88,672 88,673 88,673 87,674 87,675 87,675 86,676 86,677 86,677 85,678 85,679 85,679 84,679 83,680 83,680 82,681 82,681 81,682 81,683 81,684 81,685 81,685 79,686 79,686 78,687 78,687 77,688 75,689 75,690 75,690 74,691 74,691 73,692 73,692 71,693 70,693 69,694 69,695 69,696 67,697 67,697 66,697 64,698 62,699 62,699 60,699 52,699 39"/></g>
</svg>
