<svg xmlns="http://www.w3.org/2000/svg" width="1920" height="1350" style="border: 1px solid #cccccc;">
<line x1="20.000000" y1="10.000000" x2="204.000000" y2="10.000000" stroke="#31a354" stroke-width="3.000000" />
<text x="209.000000" y="16.000000" font-size="12" font-family="Arial;">0.0080240</text>
<line x1="20.000000" y1="30.000000" x2="43.174607" y2="30.000000" stroke="rgb(44.888688%,0.000000%,0.000000%)" stroke-width="3.000000" />
<text x="48.174607" y="34.000000" font-size="12" font-family="Arial;">KIK676</text>
<line x1="43.220469" y1="50.000000" x2="43.289263" y2="50.000000" stroke="rgb(99.296644%,0.000000%,0.000000%)" stroke-width="3.000000" />
<text x="48.289263" y="54.000000" font-size="12" font-family="Arial;">BDA190</text>
<line x1="43.495645" y1="70.000000" x2="43.564439" y2="70.000000" stroke="rgb(100.000000%,0.000000%,0.000000%)" stroke-width="3.000000" />
<text x="48.564439" y="74.000000" font-size="12" font-family="Arial;">Y42</text>
<line x1="43.495645" y1="90.000000" x2="43.564439" y2="90.000000" stroke="rgb(100.000000%,0.000000%,0.000000%)" stroke-width="3.000000" />
<text x="48.564439" y="94.000000" font-size="12" font-family="Arial;">BDA152</text>
<line x1="43.495645" y1="70.000000" x2="43.495645" y2="90.000000" stroke="rgb(100.000000%,0.000000%,0.000000%)" stroke-width="3.000000" />
<circle cx="43.495645" cy="80.000000" r="0.000000" fill="rgb(100.000000%,0.000000%,0.000000%)" stroke="rgb(100.000000%,0.000000%,0.000000%)" />
<line x1="43.426851" y1="80.000000" x2="43.495645" y2="80.000000" stroke="rgb(99.999165%,0.000000%,0.000000%)" stroke-width="3.000000" />

<line x1="43.426851" y1="110.000000" x2="89.716890" y2="110.000000" stroke="rgb(99.999165%,0.000000%,0.000000%)" stroke-width="3.000000" />
<text x="94.716890" y="114.000000" font-size="12" font-family="Arial;">UAC5124</text>
<line x1="43.426851" y1="80.000000" x2="43.426851" y2="110.000000" stroke="rgb(99.999165%,0.000000%,0.000000%)" stroke-width="3.000000" />
<circle cx="43.426851" cy="95.000000" r="0.000000" fill="rgb(99.999165%,0.000000%,0.000000%)" stroke="rgb(99.999165%,0.000000%,0.000000%)" />
<line x1="43.358057" y1="95.000000" x2="43.426851" y2="95.000000" stroke="rgb(99.985901%,0.000000%,0.000000%)" stroke-width="3.000000" />

<line x1="43.358057" y1="130.000000" x2="43.426851" y2="130.000000" stroke="rgb(99.985901%,0.000000%,0.000000%)" stroke-width="3.000000" />
<text x="48.426851" y="134.000000" font-size="12" font-family="Arial;">BDAD3242</text>
<line x1="43.358057" y1="95.000000" x2="43.358057" y2="130.000000" stroke="rgb(99.985901%,0.000000%,0.000000%)" stroke-width="3.000000" />
<circle cx="43.358057" cy="112.500000" r="0.000000" fill="rgb(99.985901%,0.000000%,0.000000%)" stroke="rgb(99.985901%,0.000000%,0.000000%)" />
<line x1="43.289263" y1="112.500000" x2="43.358057" y2="112.500000" stroke="rgb(99.835070%,0.000000%,0.000000%)" stroke-width="3.000000" />

<line x1="43.426851" y1="150.000000" x2="43.495645" y2="150.000000" stroke="rgb(99.997922%,0.000000%,0.000000%)" stroke-width="3.000000" />
<text x="48.495645" y="154.000000" font-size="12" font-family="Arial;">AKT236</text>
<line x1="43.495645" y1="170.000000" x2="43.541508" y2="170.000000" stroke="rgb(99.999584%,0.000000%,0.000000%)" stroke-width="3.000000" />
<text x="48.541508" y="174.000000" font-size="12" font-family="Arial;">YK128</text>
<line x1="135.952974" y1="190.000000" x2="136.021768" y2="190.000000" stroke="rgb(100.000000%,0.000000%,0.000000%)" stroke-width="3.000000" />
<text x="141.021768" y="194.000000" font-size="12" font-family="Arial;">KIK1671</text>
<line x1="135.998837" y1="210.000000" x2="136.067631" y2="210.000000" stroke="rgb(100.000000%,0.000000%,0.000000%)" stroke-width="3.000000" />
<text x="141.067631" y="214.000000" font-size="12" font-family="Arial;">Kik1199</text>
<line x1="136.044700" y1="230.000000" x2="136.090562" y2="230.000000" stroke="rgb(100.000000%,0.000000%,0.000000%)" stroke-width="3.000000" />
<text x="141.090562" y="234.000000" font-size="12" font-family="Arial;">KIK1200</text>
<line x1="136.044700" y1="250.000000" x2="136.090562" y2="250.000000" stroke="rgb(100.000000%,0.000000%,0.000000%)" stroke-width="3.000000" />
<text x="141.090562" y="254.000000" font-size="12" font-family="Arial;">KIK1660</text>
<line x1="136.044700" y1="230.000000" x2="136.044700" y2="250.000000" stroke="rgb(100.000000%,0.000000%,0.000000%)" stroke-width="3.000000" />
<circle cx="136.044700" cy="240.000000" r="0.000000" fill="rgb(100.000000%,0.000000%,0.000000%)" stroke="rgb(100.000000%,0.000000%,0.000000%)" />
<line x1="135.998837" y1="240.000000" x2="136.044700" y2="240.000000" stroke="rgb(100.000000%,0.000000%,0.000000%)" stroke-width="3.000000" />

<line x1="135.998837" y1="210.000000" x2="135.998837" y2="240.000000" stroke="rgb(100.000000%,0.000000%,0.000000%)" stroke-width="3.000000" />
<circle cx="135.998837" cy="225.000000" r="0.000000" fill="rgb(100.000000%,0.000000%,0.000000%)" stroke="rgb(100.000000%,0.000000%,0.000000%)" />
<line x1="135.952974" y1="225.000000" x2="135.998837" y2="225.000000" stroke="rgb(100.000000%,0.000000%,0.000000%)" stroke-width="3.000000" />

<line x1="135.952974" y1="190.000000" x2="135.952974" y2="225.000000" stroke="rgb(100.000000%,0.000000%,0.000000%)" stroke-width="3.000000" />
<circle cx="135.952974" cy="207.500000" r="0.000000" fill="rgb(100.000000%,0.000000%,0.000000%)" stroke="rgb(100.000000%,0.000000%,0.000000%)" />
<line x1="88.866550" y1="207.500000" x2="135.952974" y2="207.500000" stroke="rgb(100.000000%,0.000000%,0.000000%)" stroke-width="3.000000" />

<line x1="322.354672" y1="270.000000" x2="322.400535" y2="270.000000" stroke="rgb(100.000000%,0.000000%,0.000000%)" stroke-width="3.000000" />
<text x="327.400535" y="274.000000" font-size="12" font-family="Arial;">UMA30</text>
<line x1="322.354672" y1="290.000000" x2="322.400535" y2="290.000000" stroke="rgb(100.000000%,0.000000%,0.000000%)" stroke-width="3.000000" />
<text x="327.400535" y="294.000000" font-size="12" font-family="Arial;">CRT370</text>
<line x1="322.354672" y1="270.000000" x2="322.354672" y2="290.000000" stroke="rgb(100.000000%,0.000000%,0.000000%)" stroke-width="3.000000" />
<circle cx="322.354672" cy="280.000000" r="0.000000" fill="rgb(100.000000%,0.000000%,0.000000%)" stroke="rgb(100.000000%,0.000000%,0.000000%)" />
<line x1="322.285878" y1="280.000000" x2="322.354672" y2="280.000000" stroke="rgb(100.000000%,0.000000%,0.000000%)" stroke-width="3.000000" />

<line x1="322.331741" y1="310.000000" x2="322.377603" y2="310.000000" stroke="rgb(100.000000%,0.000000%,0.000000%)" stroke-width="3.000000" />
<text x="327.377603" y="314.000000" font-size="12" font-family="Arial;">EPL8</text>
<line x1="322.331741" y1="330.000000" x2="322.400535" y2="330.000000" stroke="rgb(100.000000%,0.000000%,0.000000%)" stroke-width="3.000000" />
<text x="327.400535" y="334.000000" font-size="12" font-family="Arial;">NDU803</text>
<line x1="322.331741" y1="310.000000" x2="322.331741" y2="330.000000" stroke="rgb(100.000000%,0.000000%,0.000000%)" stroke-width="3.000000" />
<circle cx="322.331741" cy="320.000000" r="0.000000" fill="rgb(100.000000%,0.000000%,0.000000%)" stroke="rgb(100.000000%,0.000000%,0.000000%)" />
<line x1="322.285878" y1="320.000000" x2="322.331741" y2="320.000000" stroke="rgb(100.000000%,0.000000%,0.000000%)" stroke-width="3.000000" />

<line x1="322.285878" y1="280.000000" x2="322.285878" y2="320.000000" stroke="rgb(100.000000%,0.000000%,0.000000%)" stroke-width="3.000000" />
<circle cx="322.285878" cy="300.000000" r="0.000000" fill="rgb(100.000000%,0.000000%,0.000000%)" stroke="rgb(100.000000%,0.000000%,0.000000%)" />
<line x1="277.067551" y1="300.000000" x2="322.285878" y2="300.000000" stroke="rgb(100.000000%,0.000000%,0.000000%)" stroke-width="3.000000" />

<line x1="416.230430" y1="350.000000" x2="416.276293" y2="350.000000" stroke="rgb(100.000000%,0.000000%,0.000000%)" stroke-width="3.000000" />
<text x="421.276293" y="354.000000" font-size="12" font-family="Arial;">EBO87</text>
<line x1="1079.101145" y1="370.000000" x2="1079.169939" y2="370.000000" stroke="rgb(100.000000%,0.000000%,0.000000%)" stroke-width="3.000000" />
<text x="1084.169939" y="374.000000" font-size="12" font-family="Arial;">BY12</text>
<line x1="1079.169939" y1="390.000000" x2="1079.238733" y2="390.000000" stroke="rgb(100.000000%,0.000000%,0.000000%)" stroke-width="3.000000" />
<text x="1084.238733" y="394.000000" font-size="12" font-family="Arial;">YK121</text>
<line x1="1079.422183" y1="410.000000" x2="1079.490977" y2="410.000000" stroke="rgb(100.000000%,0.000000%,0.000000%)" stroke-width="3.000000" />
<text x="1084.490977" y="414.000000" font-size="12" font-family="Arial;">YK156</text>
<line x1="1079.422183" y1="430.000000" x2="1079.490977" y2="430.000000" stroke="rgb(100.000000%,0.000000%,0.000000%)" stroke-width="3.000000" />
<text x="1084.490977" y="434.000000" font-size="12" font-family="Arial;">Y110</text>
<line x1="1079.422183" y1="410.000000" x2="1079.422183" y2="430.000000" stroke="rgb(100.000000%,0.000000%,0.000000%)" stroke-width="3.000000" />
<circle cx="1079.422183" cy="420.000000" r="0.000000" fill="rgb(100.000000%,0.000000%,0.000000%)" stroke="rgb(100.000000%,0.000000%,0.000000%)" />
<line x1="1079.353389" y1="420.000000" x2="1079.422183" y2="420.000000" stroke="rgb(100.000000%,0.000000%,0.000000%)" stroke-width="3.000000" />

<line x1="1079.353389" y1="450.000000" x2="1079.422183" y2="450.000000" stroke="rgb(100.000000%,0.000000%,0.000000%)" stroke-width="3.000000" />
<text x="1084.422183" y="454.000000" font-size="12" font-family="Arial;">BY5</text>
<line x1="1079.353389" y1="420.000000" x2="1079.353389" y2="450.000000" stroke="rgb(100.000000%,0.000000%,0.000000%)" stroke-width="3.000000" />
<circle cx="1079.353389" cy="435.000000" r="0.000000" fill="rgb(100.000000%,0.000000%,0.000000%)" stroke="rgb(100.000000%,0.000000%,0.000000%)" />
<line x1="1079.307527" y1="435.000000" x2="1079.353389" y2="435.000000" stroke="rgb(100.000000%,0.000000%,0.000000%)" stroke-width="3.000000" />

<line x1="1079.307527" y1="470.000000" x2="1079.376321" y2="470.000000" stroke="rgb(100.000000%,0.000000%,0.000000%)" stroke-width="3.000000" />
<text x="1084.376321" y="474.000000" font-size="12" font-family="Arial;">YK195</text>
<line x1="1079.307527" y1="435.000000" x2="1079.307527" y2="470.000000" stroke="rgb(100.000000%,0.000000%,0.000000%)" stroke-width="3.000000" />
<circle cx="1079.307527" cy="452.500000" r="0.000000" fill="rgb(100.000000%,0.000000%,0.000000%)" stroke="rgb(100.000000%,0.000000%,0.000000%)" />
<line x1="1079.238733" y1="452.500000" x2="1079.307527" y2="452.500000" stroke="rgb(100.000000%,0.000000%,0.000000%)" stroke-width="3.000000" />

<line x1="1079.238733" y1="490.000000" x2="1124.976030" y2="490.000000" stroke="rgb(100.000000%,0.000000%,0.000000%)" stroke-width="3.000000" />
<text x="1129.976030" y="494.000000" font-size="12" font-family="Arial;">YK64</text>
<line x1="1079.238733" y1="452.500000" x2="1079.238733" y2="490.000000" stroke="rgb(100.000000%,0.000000%,0.000000%)" stroke-width="3.000000" />
<circle cx="1079.238733" cy="471.250000" r="0.000000" fill="rgb(100.000000%,0.000000%,0.000000%)" stroke="rgb(100.000000%,0.000000%,0.000000%)" />
<line x1="1079.169939" y1="471.250000" x2="1079.238733" y2="471.250000" stroke="rgb(100.000000%,0.000000%,0.000000%)" stroke-width="3.000000" />

<line x1="1079.169939" y1="390.000000" x2="1079.169939" y2="471.250000" stroke="rgb(100.000000%,0.000000%,0.000000%)" stroke-width="3.000000" />
<circle cx="1079.169939" cy="430.625000" r="0.000000" fill="rgb(100.000000%,0.000000%,0.000000%)" stroke="rgb(100.000000%,0.000000%,0.000000%)" />
<line x1="1079.101145" y1="430.625000" x2="1079.169939" y2="430.625000" stroke="rgb(100.000000%,0.000000%,0.000000%)" stroke-width="3.000000" />

<line x1="1079.101145" y1="370.000000" x2="1079.101145" y2="430.625000" stroke="rgb(100.000000%,0.000000%,0.000000%)" stroke-width="3.000000" />
<circle cx="1079.101145" cy="400.312500" r="0.000000" fill="rgb(100.000000%,0.000000%,0.000000%)" stroke="rgb(100.000000%,0.000000%,0.000000%)" />
<line x1="1079.055282" y1="400.312500" x2="1079.101145" y2="400.312500" stroke="rgb(100.000000%,0.000000%,0.000000%)" stroke-width="3.000000" />

<line x1="1079.055282" y1="510.000000" x2="1079.124076" y2="510.000000" stroke="rgb(100.000000%,0.000000%,0.000000%)" stroke-width="3.000000" />
<text x="1084.124076" y="514.000000" font-size="12" font-family="Arial;">YK148</text>
<line x1="1079.055282" y1="400.312500" x2="1079.055282" y2="510.000000" stroke="rgb(100.000000%,0.000000%,0.000000%)" stroke-width="3.000000" />
<circle cx="1079.055282" cy="455.156250" r="0.000000" fill="rgb(100.000000%,0.000000%,0.000000%)" stroke="rgb(100.000000%,0.000000%,0.000000%)" />
<line x1="1033.582190" y1="455.156250" x2="1079.055282" y2="455.156250" stroke="rgb(100.000000%,0.000000%,0.000000%)" stroke-width="3.000000" />

<line x1="1033.582190" y1="530.000000" x2="1079.639355" y2="530.000000" stroke="rgb(100.000000%,0.000000%,0.000000%)" stroke-width="3.000000" />
<text x="1084.639355" y="534.000000" font-size="12" font-family="Arial;">YK196</text>
<line x1="1033.582190" y1="455.156250" x2="1033.582190" y2="530.000000" stroke="rgb(100.000000%,0.000000%,0.000000%)" stroke-width="3.000000" />
<circle cx="1033.582190" cy="492.578125" r="0.000000" fill="rgb(100.000000%,0.000000%,0.000000%)" stroke="rgb(100.000000%,0.000000%,0.000000%)" />
<line x1="1033.536328" y1="492.578125" x2="1033.582190" y2="492.578125" stroke="rgb(100.000000%,0.000000%,0.000000%)" stroke-width="3.000000" />

<line x1="1079.265707" y1="550.000000" x2="1079.311569" y2="550.000000" stroke="rgb(100.000000%,0.000000%,0.000000%)" stroke-width="3.000000" />
<text x="1084.311569" y="554.000000" font-size="12" font-family="Arial;">YK192</text>
<line x1="1079.265707" y1="570.000000" x2="1079.311569" y2="570.000000" stroke="rgb(100.000000%,0.000000%,0.000000%)" stroke-width="3.000000" />
<text x="1084.311569" y="574.000000" font-size="12" font-family="Arial;">YK120</text>
<line x1="1079.265707" y1="550.000000" x2="1079.265707" y2="570.000000" stroke="rgb(100.000000%,0.000000%,0.000000%)" stroke-width="3.000000" />
<circle cx="1079.265707" cy="560.000000" r="0.000000" fill="rgb(100.000000%,0.000000%,0.000000%)" stroke="rgb(100.000000%,0.000000%,0.000000%)" />
<line x1="1033.536328" y1="560.000000" x2="1079.265707" y2="560.000000" stroke="rgb(100.000000%,0.000000%,0.000000%)" stroke-width="3.000000" />

<line x1="1033.536328" y1="492.578125" x2="1033.536328" y2="560.000000" stroke="rgb(100.000000%,0.000000%,0.000000%)" stroke-width="3.000000" />
<circle cx="1033.536328" cy="526.289062" r="0.000000" fill="rgb(100.000000%,0.000000%,0.000000%)" stroke="rgb(100.000000%,0.000000%,0.000000%)" />
<line x1="1033.490465" y1="526.289062" x2="1033.536328" y2="526.289062" stroke="rgb(100.000000%,0.000000%,0.000000%)" stroke-width="3.000000" />

<line x1="1033.490465" y1="590.000000" x2="1033.536328" y2="590.000000" stroke="rgb(100.000000%,0.000000%,0.000000%)" stroke-width="3.000000" />
<text x="1038.536328" y="594.000000" font-size="12" font-family="Arial;">YK152</text>
<line x1="1033.490465" y1="526.289062" x2="1033.490465" y2="590.000000" stroke="rgb(100.000000%,0.000000%,0.000000%)" stroke-width="3.000000" />
<circle cx="1033.490465" cy="558.144531" r="0.000000" fill="rgb(100.000000%,0.000000%,0.000000%)" stroke="rgb(100.000000%,0.000000%,0.000000%)" />
<line x1="1033.421671" y1="558.144531" x2="1033.490465" y2="558.144531" stroke="rgb(100.000000%,0.000000%,0.000000%)" stroke-width="3.000000" />

<line x1="1033.421671" y1="610.000000" x2="1033.467534" y2="610.000000" stroke="rgb(100.000000%,0.000000%,0.000000%)" stroke-width="3.000000" />
<text x="1038.467534" y="614.000000" font-size="12" font-family="Arial;">Y81</text>
<line x1="1033.421671" y1="558.144531" x2="1033.421671" y2="610.000000" stroke="rgb(100.000000%,0.000000%,0.000000%)" stroke-width="3.000000" />
<circle cx="1033.421671" cy="584.072266" r="0.000000" fill="rgb(100.000000%,0.000000%,0.000000%)" stroke="rgb(100.000000%,0.000000%,0.000000%)" />
<line x1="941.699367" y1="584.072266" x2="1033.421671" y2="584.072266" stroke="rgb(100.000000%,0.000000%,0.000000%)" stroke-width="3.000000" />

<line x1="941.699367" y1="630.000000" x2="941.745230" y2="630.000000" stroke="rgb(100.000000%,0.000000%,0.000000%)" stroke-width="3.000000" />
<text x="946.745230" y="634.000000" font-size="12" font-family="Arial;">YK211</text>
<line x1="941.699367" y1="584.072266" x2="941.699367" y2="630.000000" stroke="rgb(100.000000%,0.000000%,0.000000%)" stroke-width="3.000000" />
<circle cx="941.699367" cy="607.036133" r="0.000000" fill="rgb(100.000000%,0.000000%,0.000000%)" stroke="rgb(100.000000%,0.000000%,0.000000%)" />
<line x1="941.630573" y1="607.036133" x2="941.699367" y2="607.036133" stroke="rgb(100.000000%,0.000000%,0.000000%)" stroke-width="3.000000" />

<line x1="941.630573" y1="650.000000" x2="941.676436" y2="650.000000" stroke="rgb(100.000000%,0.000000%,0.000000%)" stroke-width="3.000000" />
<text x="946.676436" y="654.000000" font-size="12" font-family="Arial;">Y74</text>
<line x1="941.630573" y1="607.036133" x2="941.630573" y2="650.000000" stroke="rgb(100.000000%,0.000000%,0.000000%)" stroke-width="3.000000" />
<circle cx="941.630573" cy="628.518066" r="0.000000" fill="rgb(100.000000%,0.000000%,0.000000%)" stroke="rgb(100.000000%,0.000000%,0.000000%)" />
<line x1="623.422880" y1="628.518066" x2="941.630573" y2="628.518066" stroke="rgb(100.000000%,0.000000%,0.000000%)" stroke-width="3.000000" />

<line x1="1721.492726" y1="670.000000" x2="1721.561520" y2="670.000000" stroke="rgb(100.000000%,0.000000%,0.000000%)" stroke-width="3.000000" />
<text x="1726.561520" y="674.000000" font-size="12" font-family="Arial;">LIK931</text>
<line x1="1721.492726" y1="690.000000" x2="1721.561520" y2="690.000000" stroke="rgb(100.000000%,0.000000%,0.000000%)" stroke-width="3.000000" />
<text x="1726.561520" y="694.000000" font-size="12" font-family="Arial;">BDA203</text>
<line x1="1721.492726" y1="670.000000" x2="1721.492726" y2="690.000000" stroke="rgb(100.000000%,0.000000%,0.000000%)" stroke-width="3.000000" />
<circle cx="1721.492726" cy="680.000000" r="0.000000" fill="rgb(100.000000%,0.000000%,0.000000%)" stroke="rgb(100.000000%,0.000000%,0.000000%)" />
<line x1="1721.446863" y1="680.000000" x2="1721.492726" y2="680.000000" stroke="rgb(100.000000%,0.000000%,0.000000%)" stroke-width="3.000000" />

<line x1="1721.446863" y1="710.000000" x2="1721.515657" y2="710.000000" stroke="rgb(100.000000%,0.000000%,0.000000%)" stroke-width="3.000000" />
<text x="1726.515657" y="714.000000" font-size="12" font-family="Arial;">BDA130</text>
<line x1="1721.446863" y1="680.000000" x2="1721.446863" y2="710.000000" stroke="rgb(100.000000%,0.000000%,0.000000%)" stroke-width="3.000000" />
<circle cx="1721.446863" cy="695.000000" r="0.000000" fill="rgb(100.000000%,0.000000%,0.000000%)" stroke="rgb(100.000000%,0.000000%,0.000000%)" />
<line x1="1721.378069" y1="695.000000" x2="1721.446863" y2="695.000000" stroke="rgb(100.000000%,0.000000%,0.000000%)" stroke-width="3.000000" />

<line x1="1767.523829" y1="730.000000" x2="1767.592623" y2="730.000000" stroke="rgb(100.000000%,0.000000%,0.000000%)" stroke-width="3.000000" />
<text x="1772.592623" y="734.000000" font-size="12" font-family="Arial;">YK217</text>
<line x1="1767.523829" y1="750.000000" x2="1767.569691" y2="750.000000" stroke="rgb(100.000000%,0.000000%,0.000000%)" stroke-width="3.000000" />
<text x="1772.569691" y="754.000000" font-size="12" font-family="Arial;">Y70</text>
<line x1="1767.523829" y1="730.000000" x2="1767.523829" y2="750.000000" stroke="rgb(100.000000%,0.000000%,0.000000%)" stroke-width="3.000000" />
<circle cx="1767.523829" cy="740.000000" r="0.000000" fill="rgb(100.000000%,0.000000%,0.000000%)" stroke="rgb(100.000000%,0.000000%,0.000000%)" />
<line x1="1767.477966" y1="740.000000" x2="1767.523829" y2="740.000000" stroke="rgb(100.000000%,0.000000%,0.000000%)" stroke-width="3.000000" />

<line x1="1813.697009" y1="770.000000" x2="1813.765803" y2="770.000000" stroke="rgb(100.000000%,0.000000%,0.000000%)" stroke-width="3.000000" />
<text x="1818.765803" y="774.000000" font-size="12" font-family="Arial;">KIK1664b</text>
<line x1="1813.742872" y1="790.000000" x2="1813.788735" y2="790.000000" stroke="rgb(100.000000%,0.000000%,0.000000%)" stroke-width="3.000000" />
<text x="1818.788735" y="794.000000" font-size="12" font-family="Arial;">YK250</text>
<line x1="1813.788735" y1="810.000000" x2="1813.857529" y2="810.000000" stroke="rgb(100.000000%,0.000000%,0.000000%)" stroke-width="3.000000" />
<text x="1818.857529" y="814.000000" font-size="12" font-family="Arial;">YK61</text>
<line x1="1813.811666" y1="830.000000" x2="1813.880460" y2="830.000000" stroke="rgb(100.000000%,0.000000%,0.000000%)" stroke-width="3.000000" />
<text x="1818.880460" y="834.000000" font-size="12" font-family="Arial;">YK15</text>
<line x1="1813.811666" y1="850.000000" x2="1860.000000" y2="850.000000" stroke="rgb(100.000000%,0.000000%,0.000000%)" stroke-width="3.000000" />
<text x="1865.000000" y="854.000000" font-size="12" font-family="Arial;">YK240</text>
<line x1="1813.811666" y1="830.000000" x2="1813.811666" y2="850.000000" stroke="rgb(100.000000%,0.000000%,0.000000%)" stroke-width="3.000000" />
<circle cx="1813.811666" cy="840.000000" r="0.000000" fill="rgb(100.000000%,0.000000%,0.000000%)" stroke="rgb(100.000000%,0.000000%,0.000000%)" />
<line x1="1813.788735" y1="840.000000" x2="1813.811666" y2="840.000000" stroke="rgb(100.000000%,0.000000%,0.000000%)" stroke-width="3.000000" />

<line x1="1813.788735" y1="810.000000" x2="1813.788735" y2="840.000000" stroke="rgb(100.000000%,0.000000%,0.000000%)" stroke-width="3.000000" />
<circle cx="1813.788735" cy="825.000000" r="0.000000" fill="rgb(100.000000%,0.000000%,0.000000%)" stroke="rgb(100.000000%,0.000000%,0.000000%)" />
<line x1="1813.742872" y1="825.000000" x2="1813.788735" y2="825.000000" stroke="rgb(100.000000%,0.000000%,0.000000%)" stroke-width="3.000000" />

<line x1="1813.742872" y1="790.000000" x2="1813.742872" y2="825.000000" stroke="rgb(100.000000%,0.000000%,0.000000%)" stroke-width="3.000000" />
<circle cx="1813.742872" cy="807.500000" r="0.000000" fill="rgb(100.000000%,0.000000%,0.000000%)" stroke="rgb(100.000000%,0.000000%,0.000000%)" />
<line x1="1813.697009" y1="807.500000" x2="1813.742872" y2="807.500000" stroke="rgb(100.000000%,0.000000%,0.000000%)" stroke-width="3.000000" />

<line x1="1813.697009" y1="770.000000" x2="1813.697009" y2="807.500000" stroke="rgb(100.000000%,0.000000%,0.000000%)" stroke-width="3.000000" />
<circle cx="1813.697009" cy="788.750000" r="0.000000" fill="rgb(100.000000%,0.000000%,0.000000%)" stroke="rgb(100.000000%,0.000000%,0.000000%)" />
<line x1="1767.477966" y1="788.750000" x2="1813.697009" y2="788.750000" stroke="rgb(100.000000%,0.000000%,0.000000%)" stroke-width="3.000000" />

<line x1="1767.477966" y1="740.000000" x2="1767.477966" y2="788.750000" stroke="rgb(100.000000%,0.000000%,0.000000%)" stroke-width="3.000000" />
<circle cx="1767.477966" cy="764.375000" r="0.000000" fill="rgb(100.000000%,0.000000%,0.000000%)" stroke="rgb(100.000000%,0.000000%,0.000000%)" />
<line x1="1767.409172" y1="764.375000" x2="1767.477966" y2="764.375000" stroke="rgb(100.000000%,0.000000%,0.000000%)" stroke-width="3.000000" />

<line x1="1767.409172" y1="870.000000" x2="1767.477966" y2="870.000000" stroke="rgb(100.000000%,0.000000%,0.000000%)" stroke-width="3.000000" />
<text x="1772.477966" y="874.000000" font-size="12" font-family="Arial;">YKX33</text>
<line x1="1767.409172" y1="764.375000" x2="1767.409172" y2="870.000000" stroke="rgb(100.000000%,0.000000%,0.000000%)" stroke-width="3.000000" />
<circle cx="1767.409172" cy="817.187500" r="0.000000" fill="rgb(100.000000%,0.000000%,0.000000%)" stroke="rgb(100.000000%,0.000000%,0.000000%)" />
<line x1="1721.378069" y1="817.187500" x2="1767.409172" y2="817.187500" stroke="rgb(100.000000%,0.000000%,0.000000%)" stroke-width="3.000000" />

<line x1="1721.378069" y1="695.000000" x2="1721.378069" y2="817.187500" stroke="rgb(100.000000%,0.000000%,0.000000%)" stroke-width="3.000000" />
<circle cx="1721.378069" cy="756.093750" r="0.000000" fill="rgb(100.000000%,0.000000%,0.000000%)" stroke="rgb(100.000000%,0.000000%,0.000000%)" />
<line x1="1721.309275" y1="756.093750" x2="1721.378069" y2="756.093750" stroke="rgb(100.000000%,0.000000%,0.000000%)" stroke-width="3.000000" />

<line x1="1721.309275" y1="890.000000" x2="1767.640290" y2="890.000000" stroke="rgb(100.000000%,0.000000%,0.000000%)" stroke-width="3.000000" />
<text x="1772.640290" y="894.000000" font-size="12" font-family="Arial;">BDA3437</text>
<line x1="1721.309275" y1="756.093750" x2="1721.309275" y2="890.000000" stroke="rgb(100.000000%,0.000000%,0.000000%)" stroke-width="3.000000" />
<circle cx="1721.309275" cy="823.046875" r="0.000000" fill="rgb(100.000000%,0.000000%,0.000000%)" stroke="rgb(100.000000%,0.000000%,0.000000%)" />
<line x1="768.007372" y1="823.046875" x2="1721.309275" y2="823.046875" stroke="rgb(100.000000%,0.000000%,0.000000%)" stroke-width="3.000000" />

<line x1="1477.118653" y1="910.000000" x2="1523.325117" y2="910.000000" stroke="rgb(100.000000%,0.000000%,0.000000%)" stroke-width="3.000000" />
<text x="1528.325117" y="914.000000" font-size="12" font-family="Arial;">LIK637</text>
<line x1="1523.384021" y1="930.000000" x2="1523.429883" y2="930.000000" stroke="rgb(100.000000%,0.000000%,0.000000%)" stroke-width="3.000000" />
<text x="1528.429883" y="934.000000" font-size="12" font-family="Arial;">YK164</text>
<line x1="1523.384021" y1="950.000000" x2="1523.429883" y2="950.000000" stroke="rgb(100.000000%,0.000000%,0.000000%)" stroke-width="3.000000" />
<text x="1528.429883" y="954.000000" font-size="12" font-family="Arial;">YK171</text>
<line x1="1523.384021" y1="930.000000" x2="1523.384021" y2="950.000000" stroke="rgb(100.000000%,0.000000%,0.000000%)" stroke-width="3.000000" />
<circle cx="1523.384021" cy="940.000000" r="0.000000" fill="rgb(100.000000%,0.000000%,0.000000%)" stroke="rgb(100.000000%,0.000000%,0.000000%)" />
<line x1="1477.118653" y1="940.000000" x2="1523.384021" y2="940.000000" stroke="rgb(100.000000%,0.000000%,0.000000%)" stroke-width="3.000000" />

<line x1="1477.118653" y1="910.000000" x2="1477.118653" y2="940.000000" stroke="rgb(100.000000%,0.000000%,0.000000%)" stroke-width="3.000000" />
<circle cx="1477.118653" cy="925.000000" r="0.000000" fill="rgb(100.000000%,0.000000%,0.000000%)" stroke="rgb(100.000000%,0.000000%,0.000000%)" />
<line x1="1477.072791" y1="925.000000" x2="1477.118653" y2="925.000000" stroke="rgb(100.000000%,0.000000%,0.000000%)" stroke-width="3.000000" />

<line x1="1477.072791" y1="970.000000" x2="1477.141585" y2="970.000000" stroke="rgb(100.000000%,0.000000%,0.000000%)" stroke-width="3.000000" />
<text x="1482.141585" y="974.000000" font-size="12" font-family="Arial;">CRT58</text>
<line x1="1477.072791" y1="925.000000" x2="1477.072791" y2="970.000000" stroke="rgb(100.000000%,0.000000%,0.000000%)" stroke-width="3.000000" />
<circle cx="1477.072791" cy="947.500000" r="0.000000" fill="rgb(100.000000%,0.000000%,0.000000%)" stroke="rgb(100.000000%,0.000000%,0.000000%)" />
<line x1="1477.026928" y1="947.500000" x2="1477.072791" y2="947.500000" stroke="rgb(100.000000%,0.000000%,0.000000%)" stroke-width="3.000000" />

<line x1="1477.026928" y1="990.000000" x2="1477.095722" y2="990.000000" stroke="rgb(100.000000%,0.000000%,0.000000%)" stroke-width="3.000000" />
<text x="1482.095722" y="994.000000" font-size="12" font-family="Arial;">EPL19</text>
<line x1="1477.026928" y1="947.500000" x2="1477.026928" y2="990.000000" stroke="rgb(100.000000%,0.000000%,0.000000%)" stroke-width="3.000000" />
<circle cx="1477.026928" cy="968.750000" r="0.000000" fill="rgb(100.000000%,0.000000%,0.000000%)" stroke="rgb(100.000000%,0.000000%,0.000000%)" />
<line x1="1476.981065" y1="968.750000" x2="1477.026928" y2="968.750000" stroke="rgb(100.000000%,0.000000%,0.000000%)" stroke-width="3.000000" />

<line x1="1476.981065" y1="1010.000000" x2="1477.049859" y2="1010.000000" stroke="rgb(100.000000%,0.000000%,0.000000%)" stroke-width="3.000000" />
<text x="1482.049859" y="1014.000000" font-size="12" font-family="Arial;">EPL6</text>
<line x1="1476.981065" y1="968.750000" x2="1476.981065" y2="1010.000000" stroke="rgb(100.000000%,0.000000%,0.000000%)" stroke-width="3.000000" />
<circle cx="1476.981065" cy="989.375000" r="0.000000" fill="rgb(100.000000%,0.000000%,0.000000%)" stroke="rgb(100.000000%,0.000000%,0.000000%)" />
<line x1="1476.935203" y1="989.375000" x2="1476.981065" y2="989.375000" stroke="rgb(100.000000%,0.000000%,0.000000%)" stroke-width="3.000000" />

<line x1="1476.935203" y1="1030.000000" x2="1523.204255" y2="1030.000000" stroke="rgb(100.000000%,0.000000%,0.000000%)" stroke-width="3.000000" />
<text x="1528.204255" y="1034.000000" font-size="12" font-family="Arial;">BDA3081</text>
<line x1="1476.935203" y1="989.375000" x2="1476.935203" y2="1030.000000" stroke="rgb(100.000000%,0.000000%,0.000000%)" stroke-width="3.000000" />
<circle cx="1476.935203" cy="1009.687500" r="0.000000" fill="rgb(100.000000%,0.000000%,0.000000%)" stroke="rgb(100.000000%,0.000000%,0.000000%)" />
<line x1="768.007372" y1="1009.687500" x2="1476.935203" y2="1009.687500" stroke="rgb(100.000000%,0.000000%,0.000000%)" stroke-width="3.000000" />

<line x1="768.007372" y1="823.046875" x2="768.007372" y2="1009.687500" stroke="rgb(100.000000%,0.000000%,0.000000%)" stroke-width="3.000000" />
<circle cx="768.007372" cy="916.367188" r="0.000000" fill="rgb(100.000000%,0.000000%,0.000000%)" stroke="rgb(100.000000%,0.000000%,0.000000%)" />
<line x1="623.422880" y1="916.367188" x2="768.007372" y2="916.367188" stroke="rgb(100.000000%,0.000000%,0.000000%)" stroke-width="3.000000" />

<line x1="623.422880" y1="628.518066" x2="623.422880" y2="916.367188" stroke="rgb(100.000000%,0.000000%,0.000000%)" stroke-width="3.000000" />
<circle cx="623.422880" cy="772.442627" r="0.000000" fill="rgb(100.000000%,0.000000%,0.000000%)" stroke="rgb(100.000000%,0.000000%,0.000000%)" />
<line x1="416.230430" y1="772.442627" x2="623.422880" y2="772.442627" stroke="rgb(100.000000%,0.000000%,0.000000%)" stroke-width="3.000000" />

<line x1="416.230430" y1="350.000000" x2="416.230430" y2="772.442627" stroke="rgb(100.000000%,0.000000%,0.000000%)" stroke-width="3.000000" />
<circle cx="416.230430" cy="561.221313" r="0.000000" fill="rgb(100.000000%,0.000000%,0.000000%)" stroke="rgb(100.000000%,0.000000%,0.000000%)" />
<line x1="370.402525" y1="561.221313" x2="416.230430" y2="561.221313" stroke="rgb(100.000000%,0.000000%,0.000000%)" stroke-width="3.000000" />

<line x1="370.402525" y1="1050.000000" x2="370.448387" y2="1050.000000" stroke="rgb(100.000000%,0.000000%,0.000000%)" stroke-width="3.000000" />
<text x="375.448387" y="1054.000000" font-size="12" font-family="Arial;">YK125</text>
<line x1="370.402525" y1="561.221313" x2="370.402525" y2="1050.000000" stroke="rgb(100.000000%,0.000000%,0.000000%)" stroke-width="3.000000" />
<circle cx="370.402525" cy="805.610657" r="0.000000" fill="rgb(100.000000%,0.000000%,0.000000%)" stroke="rgb(100.000000%,0.000000%,0.000000%)" />
<line x1="277.067551" y1="805.610657" x2="370.402525" y2="805.610657" stroke="rgb(100.000000%,0.000000%,0.000000%)" stroke-width="3.000000" />

<line x1="277.067551" y1="300.000000" x2="277.067551" y2="805.610657" stroke="rgb(100.000000%,0.000000%,0.000000%)" stroke-width="3.000000" />
<circle cx="277.067551" cy="552.805328" r="0.000000" fill="rgb(100.000000%,0.000000%,0.000000%)" stroke="rgb(100.000000%,0.000000%,0.000000%)" />
<line x1="88.866550" y1="552.805328" x2="277.067551" y2="552.805328" stroke="rgb(100.000000%,0.000000%,0.000000%)" stroke-width="3.000000" />

<line x1="88.866550" y1="207.500000" x2="88.866550" y2="552.805328" stroke="rgb(100.000000%,0.000000%,0.000000%)" stroke-width="3.000000" />
<circle cx="88.866550" cy="380.152664" r="0.000000" fill="rgb(100.000000%,0.000000%,0.000000%)" stroke="rgb(100.000000%,0.000000%,0.000000%)" />
<line x1="43.495645" y1="380.152664" x2="88.866550" y2="380.152664" stroke="rgb(99.999584%,0.000000%,0.000000%)" stroke-width="3.000000" />

<line x1="43.495645" y1="170.000000" x2="43.495645" y2="380.152664" stroke="rgb(99.999584%,0.000000%,0.000000%)" stroke-width="3.000000" />
<circle cx="43.495645" cy="275.076332" r="0.000000" fill="rgb(99.999584%,0.000000%,0.000000%)" stroke="rgb(99.999584%,0.000000%,0.000000%)" />
<line x1="43.426851" y1="275.076332" x2="43.495645" y2="275.076332" stroke="rgb(99.997922%,0.000000%,0.000000%)" stroke-width="3.000000" />

<line x1="43.426851" y1="150.000000" x2="43.426851" y2="275.076332" stroke="rgb(99.997922%,0.000000%,0.000000%)" stroke-width="3.000000" />
<circle cx="43.426851" cy="212.538166" r="0.000000" fill="rgb(99.997922%,0.000000%,0.000000%)" stroke="rgb(99.997922%,0.000000%,0.000000%)" />
<line x1="43.380989" y1="212.538166" x2="43.426851" y2="212.538166" stroke="rgb(99.980068%,0.000000%,0.000000%)" stroke-width="3.000000" />

<line x1="43.541508" y1="1070.000000" x2="89.663582" y2="1070.000000" stroke="rgb(100.000000%,0.000000%,0.000000%)" stroke-width="3.000000" />
<text x="94.663582" y="1074.000000" font-size="12" font-family="Arial;">KIK1455</text>
<line x1="43.541508" y1="1090.000000" x2="89.831391" y2="1090.000000" stroke="rgb(100.000000%,0.000000%,0.000000%)" stroke-width="3.000000" />
<text x="94.831391" y="1094.000000" font-size="12" font-family="Arial;">EPL14</text>
<line x1="43.541508" y1="1070.000000" x2="43.541508" y2="1090.000000" stroke="rgb(100.000000%,0.000000%,0.000000%)" stroke-width="3.000000" />
<circle cx="43.541508" cy="1080.000000" r="0.000000" fill="rgb(100.000000%,0.000000%,0.000000%)" stroke="rgb(100.000000%,0.000000%,0.000000%)" />
<line x1="43.495645" y1="1080.000000" x2="43.541508" y2="1080.000000" stroke="rgb(100.000000%,0.000000%,0.000000%)" stroke-width="3.000000" />

<line x1="43.541508" y1="1110.000000" x2="43.610302" y2="1110.000000" stroke="rgb(100.000000%,0.000000%,0.000000%)" stroke-width="3.000000" />
<text x="48.610302" y="1114.000000" font-size="12" font-family="Arial;">BDAD3469</text>
<line x1="89.661727" y1="1130.000000" x2="89.730521" y2="1130.000000" stroke="rgb(100.000000%,0.000000%,0.000000%)" stroke-width="3.000000" />
<text x="94.730521" y="1134.000000" font-size="12" font-family="Arial;">BY4</text>
<line x1="89.707589" y1="1150.000000" x2="89.776383" y2="1150.000000" stroke="rgb(100.000000%,0.000000%,0.000000%)" stroke-width="3.000000" />
<text x="94.776383" y="1154.000000" font-size="12" font-family="Arial;">BY2</text>
<line x1="89.707589" y1="1170.000000" x2="89.776383" y2="1170.000000" stroke="rgb(100.000000%,0.000000%,0.000000%)" stroke-width="3.000000" />
<text x="94.776383" y="1174.000000" font-size="12" font-family="Arial;">YK193</text>
<line x1="89.707589" y1="1150.000000" x2="89.707589" y2="1170.000000" stroke="rgb(100.000000%,0.000000%,0.000000%)" stroke-width="3.000000" />
<circle cx="89.707589" cy="1160.000000" r="0.000000" fill="rgb(100.000000%,0.000000%,0.000000%)" stroke="rgb(100.000000%,0.000000%,0.000000%)" />
<line x1="89.661727" y1="1160.000000" x2="89.707589" y2="1160.000000" stroke="rgb(100.000000%,0.000000%,0.000000%)" stroke-width="3.000000" />

<line x1="89.661727" y1="1130.000000" x2="89.661727" y2="1160.000000" stroke="rgb(100.000000%,0.000000%,0.000000%)" stroke-width="3.000000" />
<circle cx="89.661727" cy="1145.000000" r="0.000000" fill="rgb(100.000000%,0.000000%,0.000000%)" stroke="rgb(100.000000%,0.000000%,0.000000%)" />
<line x1="43.610302" y1="1145.000000" x2="89.661727" y2="1145.000000" stroke="rgb(100.000000%,0.000000%,0.000000%)" stroke-width="3.000000" />

<line x1="43.610302" y1="1190.000000" x2="43.679096" y2="1190.000000" stroke="rgb(100.000000%,0.000000%,0.000000%)" stroke-width="3.000000" />
<text x="48.679096" y="1194.000000" font-size="12" font-family="Arial;">YK115</text>
<line x1="43.610302" y1="1145.000000" x2="43.610302" y2="1190.000000" stroke="rgb(100.000000%,0.000000%,0.000000%)" stroke-width="3.000000" />
<circle cx="43.610302" cy="1167.500000" r="0.000000" fill="rgb(100.000000%,0.000000%,0.000000%)" stroke="rgb(100.000000%,0.000000%,0.000000%)" />
<line x1="43.541508" y1="1167.500000" x2="43.610302" y2="1167.500000" stroke="rgb(100.000000%,0.000000%,0.000000%)" stroke-width="3.000000" />

<line x1="43.541508" y1="1110.000000" x2="43.541508" y2="1167.500000" stroke="rgb(100.000000%,0.000000%,0.000000%)" stroke-width="3.000000" />
<circle cx="43.541508" cy="1138.750000" r="0.000000" fill="rgb(100.000000%,0.000000%,0.000000%)" stroke="rgb(100.000000%,0.000000%,0.000000%)" />
<line x1="43.495645" y1="1138.750000" x2="43.541508" y2="1138.750000" stroke="rgb(100.000000%,0.000000%,0.000000%)" stroke-width="3.000000" />

<line x1="43.495645" y1="1080.000000" x2="43.495645" y2="1138.750000" stroke="rgb(100.000000%,0.000000%,0.000000%)" stroke-width="3.000000" />
<circle cx="43.495645" cy="1109.375000" r="0.000000" fill="rgb(100.000000%,0.000000%,0.000000%)" stroke="rgb(100.000000%,0.000000%,0.000000%)" />
<line x1="43.426851" y1="1109.375000" x2="43.495645" y2="1109.375000" stroke="rgb(99.997931%,0.000000%,0.000000%)" stroke-width="3.000000" />

<line x1="43.426851" y1="1210.000000" x2="43.495645" y2="1210.000000" stroke="rgb(99.997931%,0.000000%,0.000000%)" stroke-width="3.000000" />
<text x="48.495645" y="1214.000000" font-size="12" font-family="Arial;">TLL57</text>
<line x1="43.426851" y1="1109.375000" x2="43.426851" y2="1210.000000" stroke="rgb(99.997931%,0.000000%,0.000000%)" stroke-width="3.000000" />
<circle cx="43.426851" cy="1159.687500" r="0.000000" fill="rgb(99.997931%,0.000000%,0.000000%)" stroke="rgb(99.997931%,0.000000%,0.000000%)" />
<line x1="43.380989" y1="1159.687500" x2="43.426851" y2="1159.687500" stroke="rgb(99.980068%,0.000000%,0.000000%)" stroke-width="3.000000" />

<line x1="43.380989" y1="212.538166" x2="43.380989" y2="1159.687500" stroke="rgb(99.980068%,0.000000%,0.000000%)" stroke-width="3.000000" />
<circle cx="43.380989" cy="686.112833" r="0.000000" fill="rgb(99.980068%,0.000000%,0.000000%)" stroke="rgb(99.980068%,0.000000%,0.000000%)" />
<line x1="43.335126" y1="686.112833" x2="43.380989" y2="686.112833" stroke="rgb(99.949077%,0.000000%,0.000000%)" stroke-width="3.000000" />

<line x1="43.518577" y1="1230.000000" x2="89.756059" y2="1230.000000" stroke="rgb(100.000000%,0.000000%,0.000000%)" stroke-width="3.000000" />
<text x="94.756059" y="1234.000000" font-size="12" font-family="Arial;">KIK1664</text>
<line x1="43.518577" y1="1250.000000" x2="43.587371" y2="1250.000000" stroke="rgb(100.000000%,0.000000%,0.000000%)" stroke-width="3.000000" />
<text x="48.587371" y="1254.000000" font-size="12" font-family="Arial;">RBTL444</text>
<line x1="43.518577" y1="1230.000000" x2="43.518577" y2="1250.000000" stroke="rgb(100.000000%,0.000000%,0.000000%)" stroke-width="3.000000" />
<circle cx="43.518577" cy="1240.000000" r="0.000000" fill="rgb(100.000000%,0.000000%,0.000000%)" stroke="rgb(100.000000%,0.000000%,0.000000%)" />
<line x1="43.472714" y1="1240.000000" x2="43.518577" y2="1240.000000" stroke="rgb(100.000000%,0.000000%,0.000000%)" stroke-width="3.000000" />

<line x1="43.472714" y1="1270.000000" x2="43.541508" y2="1270.000000" stroke="rgb(100.000000%,0.000000%,0.000000%)" stroke-width="3.000000" />
<text x="48.541508" y="1274.000000" font-size="12" font-family="Arial;">LIK926</text>
<line x1="43.472714" y1="1240.000000" x2="43.472714" y2="1270.000000" stroke="rgb(100.000000%,0.000000%,0.000000%)" stroke-width="3.000000" />
<circle cx="43.472714" cy="1255.000000" r="0.000000" fill="rgb(100.000000%,0.000000%,0.000000%)" stroke="rgb(100.000000%,0.000000%,0.000000%)" />
<line x1="43.403920" y1="1255.000000" x2="43.472714" y2="1255.000000" stroke="rgb(99.995012%,0.000000%,0.000000%)" stroke-width="3.000000" />

<line x1="43.403920" y1="1290.000000" x2="43.472714" y2="1290.000000" stroke="rgb(99.995012%,0.000000%,0.000000%)" stroke-width="3.000000" />
<text x="48.472714" y="1294.000000" font-size="12" font-family="Arial;">UAC5122</text>
<line x1="43.403920" y1="1255.000000" x2="43.403920" y2="1290.000000" stroke="rgb(99.995012%,0.000000%,0.000000%)" stroke-width="3.000000" />
<circle cx="43.403920" cy="1272.500000" r="0.000000" fill="rgb(99.995012%,0.000000%,0.000000%)" stroke="rgb(99.995012%,0.000000%,0.000000%)" />
<line x1="43.335126" y1="1272.500000" x2="43.403920" y2="1272.500000" stroke="rgb(99.949077%,0.000000%,0.000000%)" stroke-width="3.000000" />

<line x1="43.335126" y1="686.112833" x2="43.335126" y2="1272.500000" stroke="rgb(99.949077%,0.000000%,0.000000%)" stroke-width="3.000000" />
<circle cx="43.335126" cy="979.306417" r="0.000000" fill="rgb(99.949077%,0.000000%,0.000000%)" stroke="rgb(99.949077%,0.000000%,0.000000%)" />
<line x1="43.289263" y1="979.306417" x2="43.335126" y2="979.306417" stroke="rgb(99.835070%,0.000000%,0.000000%)" stroke-width="3.000000" />

<line x1="43.289263" y1="112.500000" x2="43.289263" y2="979.306417" stroke="rgb(99.835070%,0.000000%,0.000000%)" stroke-width="3.000000" />
<circle cx="43.289263" cy="545.903208" r="0.000000" fill="rgb(99.835070%,0.000000%,0.000000%)" stroke="rgb(99.835070%,0.000000%,0.000000%)" />
<line x1="43.220469" y1="545.903208" x2="43.289263" y2="545.903208" stroke="rgb(99.296644%,0.000000%,0.000000%)" stroke-width="3.000000" />

<line x1="43.220469" y1="50.000000" x2="43.220469" y2="545.903208" stroke="rgb(99.296644%,0.000000%,0.000000%)" stroke-width="3.000000" />
<circle cx="43.220469" cy="297.951604" r="0.000000" fill="rgb(99.296644%,0.000000%,0.000000%)" stroke="rgb(99.296644%,0.000000%,0.000000%)" />
<line x1="43.174607" y1="297.951604" x2="43.220469" y2="297.951604" stroke="rgb(94.278923%,0.000000%,0.000000%)" stroke-width="3.000000" />

<line x1="43.174607" y1="1310.000000" x2="43.243401" y2="1310.000000" stroke="rgb(94.278923%,0.000000%,0.000000%)" stroke-width="3.000000" />
<text x="48.243401" y="1314.000000" font-size="12" font-family="Arial;">UMA18</text>
<line x1="43.174607" y1="297.951604" x2="43.174607" y2="1310.000000" stroke="rgb(94.278923%,0.000000%,0.000000%)" stroke-width="3.000000" />
<circle cx="43.174607" cy="803.975802" r="0.000000" fill="rgb(94.278923%,0.000000%,0.000000%)" stroke="rgb(94.278923%,0.000000%,0.000000%)" />
<line x1="20.000000" y1="803.975802" x2="43.174607" y2="803.975802" stroke="rgb(44.888688%,0.000000%,0.000000%)" stroke-width="3.000000" />

<line x1="20.000000" y1="30.000000" x2="20.000000" y2="803.975802" stroke="rgb(44.888688%,0.000000%,0.000000%)" stroke-width="3.000000" />
<circle cx="20.000000" cy="416.987901" r="0.000000" fill="rgb(44.888688%,0.000000%,0.000000%)" stroke="rgb(44.888688%,0.000000%,0.000000%)" />
<text x="15.000000" y="411.987901" font-size="12" font-family="Arial;" text-anchor="end">0.55</text>
</svg>
