<?xml version="1.0" standalone="no"?>
<!DOCTYPE svg PUBLIC "-//W3C//DTD SVG 1.1//EN"
"http://www.w3.org/Graphics/SVG/1.1/DTD/svg11.dtd">
<svg xmlns="http://www.w3.org/2000/svg"
width="745" height="545" >
<g>
<line x1="40" y1="40"  x2="40" y2="500" style=" stroke: black;"/>
<line x1="40" y1="500"  x2="700" y2="500" style=" stroke: black;"/>
<line x1="37" y1="454"  x2="40" y2="454" style=" stroke: black;"/>
<text x="8" y="454" style="font-family: monospace; font-size: 10px;">0.02</text>
<line x1="37" y1="408"  x2="40" y2="408" style=" stroke: black;"/>
<text x="8" y="408" style="font-family: monospace; font-size: 10px;">0.05</text>
<line x1="37" y1="362"  x2="40" y2="362" style=" stroke: black;"/>
<text x="8" y="362" style="font-family: monospace; font-size: 10px;">0.07</text>
<line x1="37" y1="316"  x2="40" y2="316" style=" stroke: black;"/>
<text x="8" y="316" style="font-family: monospace; font-size: 10px;">0.10</text>
<line x1="37" y1="270"  x2="40" y2="270" style=" stroke: black;"/>
<text x="8" y="270" style="font-family: monospace; font-size: 10px;">0.12</text>
<line x1="37" y1="224"  x2="40" y2="224" style=" stroke: black;"/>
<text x="8" y="224" style="font-family: monospace; font-size: 10px;">0.15</text>
<line x1="37" y1="178"  x2="40" y2="178" style=" stroke: black;"/>
<text x="8" y="178" style="font-family: monospace; font-size: 10px;">0.17</text>
<line x1="37" y1="132"  x2="40" y2="132" style=" stroke: black;"/>
<text x="8" y="132" style="font-family: monospace; font-size: 10px;">0.20</text>
<line x1="37" y1="86"  x2="40" y2="86" style=" stroke: black;"/>
<text x="8" y="86" style="font-family: monospace; font-size: 10px;">0.22</text>
<line x1="37" y1="40"  x2="40" y2="40" style=" stroke: black;"/>
<text x="8" y="40" style="font-family: monospace; font-size: 10px;">0.25</text>
<line x1="106" y1="500"  x2="106" y2="505" style=" stroke: black;"/>
<text x="106" y="505" transform="rotate(90,106,505)" style="font-family: monospace; font-size: 10px;">308</text>
<line x1="172" y1="500"  x2="172" y2="505" style=" stroke: black;"/>
<text x="172" y="505" transform="rotate(90,172,505)" style="font-family: monospace; font-size: 10px;">616</text>
<line x1="238" y1="500"  x2="238" y2="505" style=" stroke: black;"/>
<text x="238" y="505" transform="rotate(90,238,505)" style="font-family: monospace; font-size: 10px;">924</text>
<line x1="304" y1="500"  x2="304" y2="505" style=" stroke: black;"/>
<text x="304" y="505" transform="rotate(90,304,505)" style="font-family: monospace; font-size: 10px;">1232</text>
<line x1="370" y1="500"  x2="370" y2="505" style=" stroke: black;"/>
<text x="370" y="505" transform="rotate(90,370,505)" style="font-family: monospace; font-size: 10px;">1540</text>
<line x1="436" y1="500"  x2="436" y2="505" style=" stroke: black;"/>
<text x="436" y="505" transform="rotate(90,436,505)" style="font-family: monospace; font-size: 10px;">1848</text>
<line x1="502" y1="500"  x2="502" y2="505" style=" stroke: black;"/>
<text x="502" y="505" transform="rotate(90,502,505)" style="font-family: monospace; font-size: 10px;">2156</text>
<line x1="568" y1="500"  x2="568" y2="505" style=" stroke: black;"/>
<text x="568" y="505" transform="rotate(90,568,505)" style="font-family: monospace; font-size: 10px;">2464</text>
<line x1="634" y1="500"  x2="634" y2="505" style=" stroke: black;"/>
<text x="634" y="505" transform="rotate(90,634,505)" style="font-family: monospace; font-size: 10px;">2772</text>
<line x1="700" y1="500"  x2="700" y2="505" style=" stroke: black;"/>
<text x="700" y="505" transform="rotate(90,700,505)" style="font-family: monospace; font-size: 10px;">3080</text>
<text x="705" y="490" style="font-family: monospace; font-size: 10px;">Rank</text>
<text x="5" y="15" style="font-family: monospace; font-size: 10px;">Dist. value</text>
<polyline style="stroke: #D82424; stroke-width:1;fill: none;"  points="40 500,41 500,42 500,43 500,44 500,45 500,46 500,47 500,48 500,49 500,50 500,51 500,52 500,53 500,54 500,54 495,55 495,56 495,57 495,58 495,59 495,60 495,61 495,62 495,63 495,64 495,65 495,66 495,67 495,68 495,69 495,70 495,71 495,72 495,73 495,74 495,75 495,76 495,77 495,78 495,79 495,80 495,81 494,82 494,83 494,84 494,85 494,86 494,87 494,88 494,88 490,89 490,90 490,91 490,92 490,93 490,94 490,95 490,96 490,97 490,98 490,99 490,100 490,101 490,102 490,103 490,104 490,105 490,106 490,107 490,108 490,109 490,110 490,111 490,112 490,113 490,114 490,115 490,116 490,117 490,117 489,118 489,119 489,119 485,120 485,121 485,122 485,123 485,124 485,125 485,126 485,127 485,128 485,129 485,130 485,131 485,132 485,133 485,134 485,135 485,136 485,137 485,138 485,139 485,140 485,141 485,142 485,143 485,144 485,145 485,146 484,147 484,148 484,149 484,150 480,151 480,152 480,153 480,154 480,155 480,156 480,157 480,158 480,159 480,160 480,161 480,162 480,162 479,163 479,164 479,165 479,166 479,167 479,167 475,168 475,169 475,170 475,171 475,172 475,173 474,174 474,175 474,175 470,176 470,177 470,178 470,178 469,179 469,180 469,181 469,181 465,181 464,182 464,182 459,183 459,183 412,183 408,183 407,184 407,185 407,186 407,187 407,187 406,188 406,188 405,188 403,189 403,189 402,190 402,191 402,192 402,193 402,194 402,195 402,196 402,197 402,198 402,199 402,200 402,200 401,201 401,201 400,202 400,202 397,203 397,204 397,205 397,206 397,207 397,208 397,209 397,210 397,211 397,212 397,213 397,214 397,215 397,216 397,217 397,218 397,218 396,219 396,220 396,221 396,222 396,223 396,224 396,225 395,226 395,226 392,227 392,228 392,229 392,230 392,231 392,232 392,233 392,234 392,235 392,236 392,237 392,238 392,239 392,240 392,240 391,241 391,242 391,243 391,244 391,245 391,246 391,247 391,248 391,249 391,250 391,251 391,252 391,252 390,253 390,254 390,255 390,255 387,256 387,257 387,258 387,259 387,260 387,261 387,262 387,263 387,264 387,265 387,266 387,267 387,268 386,269 386,270 386,271 386,272 386,273 386,274 386,275 386,276 386,276 385,277 384,277 381,278 381,279 381,280 381,281 381,282 381,283 381,284 381,285 381,286 381,287 381,288 381,288 376,289 376,290 376,291 376,292 376,293 376,294 376,294 375,295 375,295 374,296 373,296 372,296 371,297 371,298 371,298 370,299 369,300 369,301 369,302 369,303 369,303 367,303 364,304 364,305 364,306 364,307 364,308 363,309 362,309 361,309 358,310 358,311 358,312 358,313 358,314 358,314 353,315 353,316 353,317 353,318 353,319 353,319 352,320 347,321 347,322 347,323 347,324 347,324 342,325 342,326 342,326 338,327 338,327 336,328 332,328 330,328 327,329 327,329 325,330 314,330 313,330 311,331 311,331 308,332 308,332 305,333 305,333 304,333 303,333 299,334 299,334 293,335 293,335 292,335 291,336 291,336 288,337 288,337 287,337 286,338 284,339 283,339 282,340 282,340 281,340 279,341 279,341 278,341 277,342 277,342 275,343 273,344 273,344 272,345 271,345 270,346 268,346 267,346 266,346 264,347 264,347 263,347 262,348 258,348 257,348 255,348 251,348 241,349 225,349 224,349 222,349 216,350 210,350 200,351 200,351 198,351 193,352 193,353 193,353 192,353 191,354 189,354 187,355 187,356 186,356 185,357 185,357 184,358 184,358 182,359 182,359 181,360 181,361 181,362 181,363 181,363 179,364 179,364 178,365 177,366 176,367 176,367 175,367 174,368 174,369 174,369 173,370 173,371 173,371 172,372 172,372 171,373 171,374 170,375 170,375 169,376 169,376 168,376 166,377 166,378 166,379 165,380 165,380 164,381 164,382 164,382 163,383 163,384 163,385 163,385 162,385 161,386 160,387 160,388 160,389 160,390 160,391 160,391 159,392 159,393 159,394 159,395 159,395 158,396 158,397 158,398 158,398 157,399 157,400 157,401 156,402 156,402 155,402 154,403 154,404 154,404 153,405 153,406 153,407 153,408 153,408 152,409 152,410 152,411 152,412 151,413 151,414 151,415 151,416 151,416 150,417 150,418 150,419 150,419 149,420 149,421 149,421 148,422 148,422 147,423 147,424 147,425 147,426 147,426 146,427 146,428 145,429 145,430 145,431 145,432 145,433 145,433 144,434 144,435 144,436 144,437 144,438 144,439 144,439 143,440 143,440 142,441 142,442 141,443 141,444 141,445 140,445 139,446 139,447 139,448 139,448 138,449 138,450 138,450 137,451 137,452 137,453 137,454 137,455 137,456 137,456 136,457 136,458 136,459 136,459 135,460 135,461 135,462 135,463 135,464 135,465 135,465 134,466 134,467 134,468 134,469 134,469 133,470 133,471 133,471 132,472 132,473 132,474 132,475 132,476 131,477 131,478 131,479 131,480 131,481 130,482 130,483 130,483 129,484 129,485 129,486 129,487 129,488 129,489 129,490 129,491 129,492 129,493 129,494 129,495 128,496 128,496 127,497 127,498 127,499 127,500 127,501 127,501 126,502 126,503 126,503 125,504 125,504 124,505 124,506 124,507 124,508 124,509 124,510 124,511 124,512 124,512 123,513 123,514 123,515 123,516 123,517 123,518 123,519 123,520 123,521 123,522 123,523 123,524 123,525 123,525 122,526 122,527 121,528 121,529 121,530 120,531 120,532 120,533 120,534 120,535 120,535 119,536 119,536 118,537 118,538 118,539 118,540 118,541 118,542 118,542 117,543 117,544 117,545 117,545 116,546 116,547 116,548 116,549 116,550 116,551 116,552 116,553 116,554 116,555 116,556 116,557 116,558 116,559 116,560 115,561 115,562 114,563 114,564 114,565 114,566 114,567 114,568 114,568 113,569 113,570 113,571 113,572 112,573 112,574 111,575 111,576 111,577 111,578 111,578 110,579 110,580 110,581 110,582 110,583 110,584 110,585 110,586 110,587 110,588 110,589 110,590 110,590 109,591 109,592 109,593 109,594 109,595 109,595 108,596 108,597 108,597 107,598 107,599 107,600 107,601 107,602 107,603 107,604 107,604 106,605 106,606 106,607 105,608 105,609 105,610 105,611 105,612 104,613 104,613 103,614 103,615 103,616 103,617 103,618 103,619 103,620 103,621 103,622 103,622 102,623 102,624 102,625 102,625 101,626 101,627 101,628 101,629 101,630 101,631 101,632 101,632 100,633 100,633 99,634 99,635 99,636 99,637 99,638 99,638 98,639 98,640 98,641 98,641 97,642 97,643 97,643 96,644 96,645 96,646 96,647 96,648 96,649 95,650 94,651 94,652 94,653 94,654 94,655 93,656 93,656 92,657 92,658 92,659 92,659 91,660 91,661 91,661 90,662 90,663 90,664 90,665 90,665 89,666 89,667 89,667 88,668 88,668 87,669 87,670 87,670 86,671 86,671 85,672 85,673 85,673 83,674 83,675 83,675 82,676 82,677 82,677 81,678 81,679 81,680 81,680 79,681 78,682 77,683 77,684 77,685 75,686 75,687 74,688 74,688 73,689 73,690 71,691 70,692 70,692 69,693 69,694 69,694 67,695 67,695 66,696 64,696 63,697 63,697 62,698 62,699 62,699 56,699 52,699 39"/></g>
</svg>
