<svg xmlns="http://www.w3.org/2000/svg"  width="405" height="305" >
<g>
<line x1="40" y1="40"  x2="40" y2="240" style=" stroke: black;"/>
<line x1="40" y1="240"  x2="340" y2="240" style=" stroke: black;"/>
<line x1="37" y1="220"  x2="40" y2="220" style=" stroke: black;"/>
<text x="5" y="220" style="font-family: monospace; font-size: 8px;">793</text>
<line x1="37" y1="200"  x2="40" y2="200" style=" stroke: black;"/>
<text x="5" y="200" style="font-family: monospace; font-size: 8px;">1587</text>
<line x1="37" y1="180"  x2="40" y2="180" style=" stroke: black;"/>
<text x="5" y="180" style="font-family: monospace; font-size: 8px;">2380</text>
<line x1="37" y1="160"  x2="40" y2="160" style=" stroke: black;"/>
<text x="5" y="160" style="font-family: monospace; font-size: 8px;">3174</text>
<line x1="37" y1="140"  x2="40" y2="140" style=" stroke: black;"/>
<text x="5" y="140" style="font-family: monospace; font-size: 8px;">3968</text>
<line x1="37" y1="120"  x2="40" y2="120" style=" stroke: black;"/>
<text x="5" y="120" style="font-family: monospace; font-size: 8px;">4761</text>
<line x1="37" y1="100"  x2="40" y2="100" style=" stroke: black;"/>
<text x="5" y="100" style="font-family: monospace; font-size: 8px;">5555</text>
<line x1="37" y1="80"  x2="40" y2="80" style=" stroke: black;"/>
<text x="5" y="80" style="font-family: monospace; font-size: 8px;">6348</text>
<line x1="37" y1="60"  x2="40" y2="60" style=" stroke: black;"/>
<text x="5" y="60" style="font-family: monospace; font-size: 8px;">7142</text>
<line x1="37" y1="40"  x2="40" y2="40" style=" stroke: black;"/>
<text x="5" y="40" style="font-family: monospace; font-size: 8px;">7936</text>
<text x="5" y="15" style="font-family: monospace; font-size: 10px;">Nbr</text>
<text x="270" y="280" style="font-family: monospace; font-size: 10px;">Dist. Dt</text>
<rect x="40" y="39" width="15" height="200"  fill= "#ffb83b"  style=" stroke: black;" />
<line x1="40" y1="240"  x2="40" y2="245" style=" stroke: black;"/>
<text x="40" y="246" transform="rotate(90,40,246)" style="font-family: monospace; font-size: 8px;">0.00</text>
<rect x="55" y="238" width="15" height="1"  fill= "#ffb83b"  style=" stroke: black;" />
<line x1="55" y1="240"  x2="55" y2="245" style=" stroke: black;"/>
<text x="55" y="246" transform="rotate(90,55,246)" style="font-family: monospace; font-size: 8px;">0.02</text>
<rect x="70" y="239" width="15" height="0"  fill= "#ffb83b"  style=" stroke: black;" />
<line x1="70" y1="240"  x2="70" y2="245" style=" stroke: black;"/>
<text x="70" y="246" transform="rotate(90,70,246)" style="font-family: monospace; font-size: 8px;">0.03</text>
<rect x="85" y="78" width="15" height="161"  fill= "#ffb83b"  style=" stroke: black;" />
<line x1="85" y1="240"  x2="85" y2="245" style=" stroke: black;"/>
<text x="85" y="246" transform="rotate(90,85,246)" style="font-family: monospace; font-size: 8px;">0.05</text>
<rect x="100" y="221" width="15" height="18"  fill= "#ffb83b"  style=" stroke: black;" />
<line x1="100" y1="240"  x2="100" y2="245" style=" stroke: black;"/>
<text x="100" y="246" transform="rotate(90,100,246)" style="font-family: monospace; font-size: 8px;">0.06</text>
<rect x="115" y="231" width="15" height="8"  fill= "#ffb83b"  style=" stroke: black;" />
<line x1="115" y1="240"  x2="115" y2="245" style=" stroke: black;"/>
<text x="115" y="246" transform="rotate(90,115,246)" style="font-family: monospace; font-size: 8px;">0.08</text>
<rect x="130" y="238" width="15" height="1"  fill= "#ffb83b"  style=" stroke: black;" />
<line x1="130" y1="240"  x2="130" y2="245" style=" stroke: black;"/>
<text x="130" y="246" transform="rotate(90,130,246)" style="font-family: monospace; font-size: 8px;">0.09</text>
<rect x="145" y="238" width="15" height="1"  fill= "#ffb83b"  style=" stroke: black;" />
<line x1="145" y1="240"  x2="145" y2="245" style=" stroke: black;"/>
<text x="145" y="246" transform="rotate(90,145,246)" style="font-family: monospace; font-size: 8px;">0.11</text>
<rect x="160" y="234" width="15" height="5"  fill= "#ffb83b"  style=" stroke: black;" />
<line x1="160" y1="240"  x2="160" y2="245" style=" stroke: black;"/>
<text x="160" y="246" transform="rotate(90,160,246)" style="font-family: monospace; font-size: 8px;">0.13</text>
<rect x="175" y="239" width="15" height="0"  fill= "#ffb83b"  style=" stroke: black;" />
<line x1="175" y1="240"  x2="175" y2="245" style=" stroke: black;"/>
<text x="175" y="246" transform="rotate(90,175,246)" style="font-family: monospace; font-size: 8px;">0.14</text>
<rect x="190" y="237" width="15" height="2"  fill= "#ffb83b"  style=" stroke: black;" />
<line x1="190" y1="240"  x2="190" y2="245" style=" stroke: black;"/>
<text x="190" y="246" transform="rotate(90,190,246)" style="font-family: monospace; font-size: 8px;">0.16</text>
<rect x="205" y="217" width="15" height="22"  fill= "#ffb83b"  style=" stroke: black;" />
<line x1="205" y1="240"  x2="205" y2="245" style=" stroke: black;"/>
<text x="205" y="246" transform="rotate(90,205,246)" style="font-family: monospace; font-size: 8px;">0.17</text>
<rect x="220" y="195" width="15" height="44"  fill= "#ffb83b"  style=" stroke: black;" />
<line x1="220" y1="240"  x2="220" y2="245" style=" stroke: black;"/>
<text x="220" y="246" transform="rotate(90,220,246)" style="font-family: monospace; font-size: 8px;">0.19</text>
<rect x="235" y="150" width="15" height="89"  fill= "#ffb83b"  style=" stroke: black;" />
<line x1="235" y1="240"  x2="235" y2="245" style=" stroke: black;"/>
<text x="235" y="246" transform="rotate(90,235,246)" style="font-family: monospace; font-size: 8px;">0.20</text>
<rect x="250" y="190" width="15" height="49"  fill= "#ffb83b"  style=" stroke: black;" />
<line x1="250" y1="240"  x2="250" y2="245" style=" stroke: black;"/>
<text x="250" y="246" transform="rotate(90,250,246)" style="font-family: monospace; font-size: 8px;">0.22</text>
<rect x="265" y="207" width="15" height="32"  fill= "#ffb83b"  style=" stroke: black;" />
<line x1="265" y1="240"  x2="265" y2="245" style=" stroke: black;"/>
<text x="265" y="246" transform="rotate(90,265,246)" style="font-family: monospace; font-size: 8px;">0.23</text>
<rect x="280" y="222" width="15" height="17"  fill= "#ffb83b"  style=" stroke: black;" />
<line x1="280" y1="240"  x2="280" y2="245" style=" stroke: black;"/>
<text x="280" y="246" transform="rotate(90,280,246)" style="font-family: monospace; font-size: 8px;">0.25</text>
<rect x="295" y="234" width="15" height="5"  fill= "#ffb83b"  style=" stroke: black;" />
<line x1="295" y1="240"  x2="295" y2="245" style=" stroke: black;"/>
<text x="295" y="246" transform="rotate(90,295,246)" style="font-family: monospace; font-size: 8px;">0.27</text>
<rect x="310" y="234" width="15" height="5"  fill= "#ffb83b"  style=" stroke: black;" />
<line x1="310" y1="240"  x2="310" y2="245" style=" stroke: black;"/>
<text x="310" y="246" transform="rotate(90,310,246)" style="font-family: monospace; font-size: 8px;">0.28</text>
<rect x="325" y="239" width="15" height="0"  fill= "#ffb83b"  style=" stroke: black;" />
<line x1="325" y1="240"  x2="325" y2="245" style=" stroke: black;"/>
<text x="325" y="246" transform="rotate(90,325,246)" style="font-family: monospace; font-size: 8px;">0.30</text>
<line id="CutDis10" visibility="hidden" x1="87" y1="240"  x2="87" y2="40" style=" stroke: red;"/>
<line id="CutDis9" visibility="hidden" x1="55" y1="240"  x2="55" y2="40" style=" stroke: red;"/>
<line id="CutDis8" visibility="hidden" x1="50" y1="240"  x2="50" y2="40" style=" stroke: red;"/>
<line id="CutDis7" visibility="hidden" x1="134" y1="240"  x2="134" y2="40" style=" stroke: red;"/>
<line id="CutDis6" visibility="hidden" x1="113" y1="240"  x2="113" y2="40" style=" stroke: red;"/>
<line id="CutDis5" visibility="hidden" x1="155" y1="240"  x2="155" y2="40" style=" stroke: red;"/>
<line id="CutDis4" visibility="hidden" x1="80" y1="240"  x2="80" y2="40" style=" stroke: red;"/>
<line id="CutDis3" visibility="hidden" x1="129" y1="240"  x2="129" y2="40" style=" stroke: red;"/>
<line id="CutDis2" visibility="hidden" x1="65" y1="240"  x2="65" y2="40" style=" stroke: red;"/>
<line id="CutDis1" visibility="hidden" x1="140" y1="240"  x2="140" y2="40" style=" stroke: red;"/>
</g>
</svg>
