<svg xmlns="http://www.w3.org/2000/svg"  width="345" height="285" >
<g>
<line x1="40" y1="40"  x2="40" y2="240" style=" stroke: black;"/>
<line x1="40" y1="240"  x2="340" y2="240" style=" stroke: black;"/>
<line x1="37" y1="220"  x2="40" y2="220" style=" stroke: black;"/>
<text x="8" y="220" style="font-family: monospace; font-size: 8px;">0.03</text>
<line x1="37" y1="200"  x2="40" y2="200" style=" stroke: black;"/>
<text x="8" y="200" style="font-family: monospace; font-size: 8px;">0.06</text>
<line x1="37" y1="180"  x2="40" y2="180" style=" stroke: black;"/>
<text x="8" y="180" style="font-family: monospace; font-size: 8px;">0.09</text>
<line x1="37" y1="160"  x2="40" y2="160" style=" stroke: black;"/>
<text x="8" y="160" style="font-family: monospace; font-size: 8px;">0.13</text>
<line x1="37" y1="140"  x2="40" y2="140" style=" stroke: black;"/>
<text x="8" y="140" style="font-family: monospace; font-size: 8px;">0.16</text>
<line x1="37" y1="120"  x2="40" y2="120" style=" stroke: black;"/>
<text x="8" y="120" style="font-family: monospace; font-size: 8px;">0.19</text>
<line x1="37" y1="100"  x2="40" y2="100" style=" stroke: black;"/>
<text x="8" y="100" style="font-family: monospace; font-size: 8px;">0.22</text>
<line x1="37" y1="80"  x2="40" y2="80" style=" stroke: black;"/>
<text x="8" y="80" style="font-family: monospace; font-size: 8px;">0.25</text>
<line x1="37" y1="60"  x2="40" y2="60" style=" stroke: black;"/>
<text x="8" y="60" style="font-family: monospace; font-size: 8px;">0.28</text>
<line x1="37" y1="40"  x2="40" y2="40" style=" stroke: black;"/>
<text x="8" y="40" style="font-family: monospace; font-size: 8px;">0.31</text>
<line x1="70" y1="240"  x2="70" y2="245" style=" stroke: black;"/>
<text x="70" y="245" transform="rotate(90,70,245)" style="font-family: monospace; font-size: 8px;">2656</text>
<line x1="100" y1="240"  x2="100" y2="245" style=" stroke: black;"/>
<text x="100" y="245" transform="rotate(90,100,245)" style="font-family: monospace; font-size: 8px;">5312</text>
<line x1="130" y1="240"  x2="130" y2="245" style=" stroke: black;"/>
<text x="130" y="245" transform="rotate(90,130,245)" style="font-family: monospace; font-size: 8px;">7968</text>
<line x1="160" y1="240"  x2="160" y2="245" style=" stroke: black;"/>
<text x="160" y="245" transform="rotate(90,160,245)" style="font-family: monospace; font-size: 8px;">10624</text>
<line x1="190" y1="240"  x2="190" y2="245" style=" stroke: black;"/>
<text x="190" y="245" transform="rotate(90,190,245)" style="font-family: monospace; font-size: 8px;">13280</text>
<line x1="220" y1="240"  x2="220" y2="245" style=" stroke: black;"/>
<text x="220" y="245" transform="rotate(90,220,245)" style="font-family: monospace; font-size: 8px;">15936</text>
<line x1="250" y1="240"  x2="250" y2="245" style=" stroke: black;"/>
<text x="250" y="245" transform="rotate(90,250,245)" style="font-family: monospace; font-size: 8px;">18592</text>
<line x1="280" y1="240"  x2="280" y2="245" style=" stroke: black;"/>
<text x="280" y="245" transform="rotate(90,280,245)" style="font-family: monospace; font-size: 8px;">21248</text>
<line x1="310" y1="240"  x2="310" y2="245" style=" stroke: black;"/>
<text x="310" y="245" transform="rotate(90,310,245)" style="font-family: monospace; font-size: 8px;">23904</text>
<line x1="340" y1="240"  x2="340" y2="245" style=" stroke: black;"/>
<text x="340" y="245" transform="rotate(90,340,245)" style="font-family: monospace; font-size: 8px;">26560</text>
<text x="5" y="8" style="font-family: monospace; font-size: 10px;">Dist. Dt</text>
<text x="320" y="230" style="font-family: monospace; font-size: 10px;">Rank</text>
<polyline style="stroke: #00a5eb; stroke-width:1;fill: none;"  points="40 240,41 240,42 240,43 240,44 240,45 240,46 240,47 240,48 240,49 240,50 240,51 240,52 240,53 240,54 240,55 240,56 240,57 240,58 240,59 240,60 240,61 240,62 240,63 240,64 240,65 240,66 240,67 240,68 240,69 240,70 240,71 240,72 240,73 240,74 240,75 240,76 240,76 238,77 238,78 238,79 238,80 238,81 238,82 238,83 238,84 238,85 238,86 238,87 238,88 238,89 238,90 238,91 238,92 238,93 238,94 238,95 238,95 236,96 236,97 236,98 236,99 236,100 236,101 236,102 236,103 236,104 236,105 236,106 236,107 236,108 236,109 236,110 236,111 236,112 236,113 236,114 236,115 236,115 234,116 234,117 234,118 234,119 234,120 234,121 234,122 234,123 234,124 234,125 234,125 233,126 233,127 233,128 233,128 231,129 231,129 229,130 229,130 228,130 227,130 226,130 224,130 217,130 208,130 206,131 206,132 206,133 206,134 206,135 206,136 206,137 206,137 205,138 205,139 205,140 205,141 205,142 205,143 205,144 205,145 205,146 205,147 205,148 205,149 205,150 205,151 205,152 205,153 205,154 205,155 205,156 205,157 205,158 205,159 205,160 205,161 205,162 205,163 205,164 205,165 205,166 205,167 205,167 204,168 204,169 204,170 204,170 203,171 203,172 203,173 203,174 203,175 203,176 203,177 203,178 203,179 203,180 203,181 203,182 203,183 203,184 203,185 203,186 203,187 203,188 203,189 203,190 203,191 203,192 203,192 202,192 201,193 201,194 201,195 201,196 201,197 201,198 201,199 201,200 201,201 201,202 201,202 200,202 199,203 199,204 199,205 199,205 198,205 197,206 197,206 195,207 195,207 194,207 193,208 193,208 192,208 191,209 191,210 191,210 189,211 189,212 189,213 189,213 187,214 187,214 185,214 183,214 182,214 181,214 180,214 179,214 178,215 177,215 176,215 175,215 173,215 171,215 170,215 169,215 168,215 167,215 166,215 165,215 164,215 163,215 162,215 161,216 161,216 160,216 159,216 158,216 157,216 156,216 155,216 154,217 154,217 153,217 152,217 151,218 151,218 150,218 149,218 148,218 147,218 146,218 145,218 144,218 143,218 142,218 141,218 139,219 139,219 138,219 137,219 136,219 135,219 134,219 133,219 132,219 131,219 130,220 130,220 129,220 128,220 127,220 126,221 126,221 125,222 125,222 124,223 124,223 123,223 122,224 122,225 122,226 122,226 121,227 121,227 120,228 120,229 120,230 120,230 119,231 119,231 118,232 118,233 118,234 118,234 117,235 117,236 117,236 116,236 115,237 115,238 115,239 115,239 114,239 113,240 113,241 113,242 113,243 113,243 112,244 112,244 111,245 111,246 111,247 111,248 111,249 111,249 110,250 110,250 109,251 109,252 109,253 109,254 109,255 109,255 108,256 108,256 107,257 107,258 107,259 107,260 107,261 107,262 107,263 107,264 107,265 107,265 106,266 106,267 106,268 106,269 106,269 105,269 104,270 104,271 104,272 104,273 104,274 104,275 104,276 104,277 104,277 103,278 103,278 102,279 102,280 102,281 102,282 102,283 102,284 102,284 101,285 101,285 100,286 100,287 100,288 100,289 100,290 100,290 99,291 99,292 99,292 98,293 98,294 98,295 98,295 97,296 97,297 97,297 96,297 95,298 95,299 95,300 95,300 94,301 94,301 93,302 93,303 93,304 93,305 93,305 92,306 92,306 91,307 91,308 91,309 91,310 91,311 91,311 90,312 90,312 89,313 89,314 89,315 89,316 89,317 89,317 88,318 88,318 87,319 87,319 86,320 86,320 85,320 84,321 84,322 84,323 84,323 83,324 83,324 82,325 82,325 81,326 81,326 80,327 80,327 79,328 79,329 79,329 78,329 77,330 77,330 76,331 75,332 75,332 74,332 73,332 72,333 72,333 71,334 71,334 70,334 69,335 69,335 68,335 67,335 66,335 65,335 64,336 64,336 63,336 62,336 60,337 60,337 59,337 58,338 58,338 57,338 56,338 55,339 55,339 54,339 53,339 52,339 51,339 50,339 49,339 47,339 46,339 45,339 42,339 39"/><line id="CutDis10" visibility="hidden" x1="40" y1="208"  x2="340" y2="208" style=" stroke: red;"/>
<line id="CutDis9" visibility="hidden" x1="40" y1="229"  x2="340" y2="229" style=" stroke: red;"/>
<line id="CutDis8" visibility="hidden" x1="40" y1="233"  x2="340" y2="233" style=" stroke: red;"/>
<line id="CutDis7" visibility="hidden" x1="40" y1="176"  x2="340" y2="176" style=" stroke: red;"/>
<line id="CutDis6" visibility="hidden" x1="40" y1="191"  x2="340" y2="191" style=" stroke: red;"/>
<line id="CutDis5" visibility="hidden" x1="40" y1="163"  x2="340" y2="163" style=" stroke: red;"/>
<line id="CutDis4" visibility="hidden" x1="40" y1="213"  x2="340" y2="213" style=" stroke: red;"/>
<line id="CutDis3" visibility="hidden" x1="40" y1="180"  x2="340" y2="180" style=" stroke: red;"/>
<line id="CutDis2" visibility="hidden" x1="40" y1="222"  x2="340" y2="222" style=" stroke: red;"/>
<line id="CutDis1" visibility="hidden" x1="40" y1="173"  x2="340" y2="173" style=" stroke: red;"/>

</g>
</svg>
