<svg xmlns="http://www.w3.org/2000/svg"  width="405" height="305" >
<g>
<line x1="40" y1="40"  x2="40" y2="240" style=" stroke: black;"/>
<line x1="40" y1="240"  x2="340" y2="240" style=" stroke: black;"/>
<line x1="37" y1="220"  x2="40" y2="220" style=" stroke: black;"/>
<text x="5" y="220" style="font-family: monospace; font-size: 8px;">29</text>
<line x1="37" y1="200"  x2="40" y2="200" style=" stroke: black;"/>
<text x="5" y="200" style="font-family: monospace; font-size: 8px;">58</text>
<line x1="37" y1="180"  x2="40" y2="180" style=" stroke: black;"/>
<text x="5" y="180" style="font-family: monospace; font-size: 8px;">88</text>
<line x1="37" y1="160"  x2="40" y2="160" style=" stroke: black;"/>
<text x="5" y="160" style="font-family: monospace; font-size: 8px;">117</text>
<line x1="37" y1="140"  x2="40" y2="140" style=" stroke: black;"/>
<text x="5" y="140" style="font-family: monospace; font-size: 8px;">147</text>
<line x1="37" y1="120"  x2="40" y2="120" style=" stroke: black;"/>
<text x="5" y="120" style="font-family: monospace; font-size: 8px;">176</text>
<line x1="37" y1="100"  x2="40" y2="100" style=" stroke: black;"/>
<text x="5" y="100" style="font-family: monospace; font-size: 8px;">205</text>
<line x1="37" y1="80"  x2="40" y2="80" style=" stroke: black;"/>
<text x="5" y="80" style="font-family: monospace; font-size: 8px;">235</text>
<line x1="37" y1="60"  x2="40" y2="60" style=" stroke: black;"/>
<text x="5" y="60" style="font-family: monospace; font-size: 8px;">264</text>
<line x1="37" y1="40"  x2="40" y2="40" style=" stroke: black;"/>
<text x="5" y="40" style="font-family: monospace; font-size: 8px;">294</text>
<text x="5" y="15" style="font-family: monospace; font-size: 10px;">Nbr</text>
<text x="270" y="280" style="font-family: monospace; font-size: 10px;">Dist. Dt</text>
<rect x="40" y="40" width="15" height="199"  fill= "#ffb83b"  style=" stroke: black;" />
<line x1="40" y1="240"  x2="40" y2="245" style=" stroke: black;"/>
<text x="40" y="246" transform="rotate(90,40,246)" style="font-family: monospace; font-size: 8px;">0.00</text>
<rect x="55" y="180" width="15" height="59"  fill= "#ffb83b"  style=" stroke: black;" />
<line x1="55" y1="240"  x2="55" y2="245" style=" stroke: black;"/>
<text x="55" y="246" transform="rotate(90,55,246)" style="font-family: monospace; font-size: 8px;">0.00</text>
<rect x="70" y="231" width="15" height="8"  fill= "#ffb83b"  style=" stroke: black;" />
<line x1="70" y1="240"  x2="70" y2="245" style=" stroke: black;"/>
<text x="70" y="246" transform="rotate(90,70,246)" style="font-family: monospace; font-size: 8px;">0.01</text>
<rect x="85" y="203" width="15" height="36"  fill= "#ffb83b"  style=" stroke: black;" />
<line x1="85" y1="240"  x2="85" y2="245" style=" stroke: black;"/>
<text x="85" y="246" transform="rotate(90,85,246)" style="font-family: monospace; font-size: 8px;">0.01</text>
<rect x="100" y="205" width="15" height="34"  fill= "#ffb83b"  style=" stroke: black;" />
<line x1="100" y1="240"  x2="100" y2="245" style=" stroke: black;"/>
<text x="100" y="246" transform="rotate(90,100,246)" style="font-family: monospace; font-size: 8px;">0.01</text>
<rect x="115" y="222" width="15" height="17"  fill= "#ffb83b"  style=" stroke: black;" />
<line x1="115" y1="240"  x2="115" y2="245" style=" stroke: black;"/>
<text x="115" y="246" transform="rotate(90,115,246)" style="font-family: monospace; font-size: 8px;">0.02</text>
<rect x="130" y="238" width="15" height="1"  fill= "#ffb83b"  style=" stroke: black;" />
<line x1="130" y1="240"  x2="130" y2="245" style=" stroke: black;"/>
<text x="130" y="246" transform="rotate(90,130,246)" style="font-family: monospace; font-size: 8px;">0.02</text>
<rect x="145" y="236" width="15" height="3"  fill= "#ffb83b"  style=" stroke: black;" />
<line x1="145" y1="240"  x2="145" y2="245" style=" stroke: black;"/>
<text x="145" y="246" transform="rotate(90,145,246)" style="font-family: monospace; font-size: 8px;">0.02</text>
<rect x="160" y="220" width="15" height="19"  fill= "#ffb83b"  style=" stroke: black;" />
<line x1="160" y1="240"  x2="160" y2="245" style=" stroke: black;"/>
<text x="160" y="246" transform="rotate(90,160,246)" style="font-family: monospace; font-size: 8px;">0.02</text>
<rect x="175" y="231" width="15" height="8"  fill= "#ffb83b"  style=" stroke: black;" />
<line x1="175" y1="240"  x2="175" y2="245" style=" stroke: black;"/>
<text x="175" y="246" transform="rotate(90,175,246)" style="font-family: monospace; font-size: 8px;">0.03</text>
<rect x="190" y="202" width="15" height="37"  fill= "#ffb83b"  style=" stroke: black;" />
<line x1="190" y1="240"  x2="190" y2="245" style=" stroke: black;"/>
<text x="190" y="246" transform="rotate(90,190,246)" style="font-family: monospace; font-size: 8px;">0.03</text>
<rect x="205" y="187" width="15" height="52"  fill= "#ffb83b"  style=" stroke: black;" />
<line x1="205" y1="240"  x2="205" y2="245" style=" stroke: black;"/>
<text x="205" y="246" transform="rotate(90,205,246)" style="font-family: monospace; font-size: 8px;">0.03</text>
<rect x="220" y="174" width="15" height="65"  fill= "#ffb83b"  style=" stroke: black;" />
<line x1="220" y1="240"  x2="220" y2="245" style=" stroke: black;"/>
<text x="220" y="246" transform="rotate(90,220,246)" style="font-family: monospace; font-size: 8px;">0.04</text>
<rect x="235" y="173" width="15" height="66"  fill= "#ffb83b"  style=" stroke: black;" />
<line x1="235" y1="240"  x2="235" y2="245" style=" stroke: black;"/>
<text x="235" y="246" transform="rotate(90,235,246)" style="font-family: monospace; font-size: 8px;">0.04</text>
<rect x="250" y="206" width="15" height="33"  fill= "#ffb83b"  style=" stroke: black;" />
<line x1="250" y1="240"  x2="250" y2="245" style=" stroke: black;"/>
<text x="250" y="246" transform="rotate(90,250,246)" style="font-family: monospace; font-size: 8px;">0.04</text>
<rect x="265" y="238" width="15" height="1"  fill= "#ffb83b"  style=" stroke: black;" />
<line x1="265" y1="240"  x2="265" y2="245" style=" stroke: black;"/>
<text x="265" y="246" transform="rotate(90,265,246)" style="font-family: monospace; font-size: 8px;">0.05</text>
<rect x="280" y="234" width="15" height="5"  fill= "#ffb83b"  style=" stroke: black;" />
<line x1="280" y1="240"  x2="280" y2="245" style=" stroke: black;"/>
<text x="280" y="246" transform="rotate(90,280,246)" style="font-family: monospace; font-size: 8px;">0.05</text>
<rect x="295" y="233" width="15" height="6"  fill= "#ffb83b"  style=" stroke: black;" />
<line x1="295" y1="240"  x2="295" y2="245" style=" stroke: black;"/>
<text x="295" y="246" transform="rotate(90,295,246)" style="font-family: monospace; font-size: 8px;">0.05</text>
<rect x="310" y="237" width="15" height="2"  fill= "#ffb83b"  style=" stroke: black;" />
<line x1="310" y1="240"  x2="310" y2="245" style=" stroke: black;"/>
<text x="310" y="246" transform="rotate(90,310,246)" style="font-family: monospace; font-size: 8px;">0.05</text>
<rect x="325" y="227" width="15" height="12"  fill= "#ffb83b"  style=" stroke: black;" />
<line x1="325" y1="240"  x2="325" y2="245" style=" stroke: black;"/>
<text x="325" y="246" transform="rotate(90,325,246)" style="font-family: monospace; font-size: 8px;">0.06</text>
<line id="CutDis5" visibility="hidden" x1="40" y1="240"  x2="40" y2="40" style=" stroke: red;"/>
<line id="CutDis4" visibility="hidden" x1="44" y1="240"  x2="44" y2="40" style=" stroke: red;"/>
<line id="CutDis3" visibility="hidden" x1="49" y1="240"  x2="49" y2="40" style=" stroke: red;"/>
<line id="CutDis2" visibility="hidden" x1="150" y1="240"  x2="150" y2="40" style=" stroke: red;"/>
<line id="CutDis1" visibility="hidden" x1="55" y1="240"  x2="55" y2="40" style=" stroke: red;"/>
</g>
</svg>
