<svg xmlns="http://www.w3.org/2000/svg" width="1920" height="950" style="border: 1px solid #cccccc;">
<line x1="20.000000" y1="10.000000" x2="198.400000" y2="10.000000" stroke="#31a354" stroke-width="3.000000" />
<text x="203.400000" y="16.000000" font-size="12" font-family="Arial;">0.0045163</text>
<line x1="20.000000" y1="30.000000" x2="768.560643" y2="30.000000" stroke="rgb(0.629087%,0.000000%,0.000000%)" stroke-width="3.000000" />
<text x="773.560643" y="34.000000" font-size="12" font-family="Arial;">YK171</text>
<line x1="1165.482430" y1="50.000000" x2="1165.561442" y2="50.000000" stroke="rgb(99.847181%,0.000000%,0.000000%)" stroke-width="3.000000" />
<text x="1170.561442" y="54.000000" font-size="12" font-family="Arial;">YK125</text>
<line x1="1724.394933" y1="70.000000" x2="1724.513451" y2="70.000000" stroke="rgb(100.000000%,0.000000%,0.000000%)" stroke-width="3.000000" />
<text x="1729.513451" y="74.000000" font-size="12" font-family="Arial;">AKT236</text>
<line x1="1724.631970" y1="90.000000" x2="1724.750488" y2="90.000000" stroke="rgb(100.000000%,0.000000%,0.000000%)" stroke-width="3.000000" />
<text x="1729.750488" y="94.000000" font-size="12" font-family="Arial;">BDA152</text>
<line x1="1724.631970" y1="110.000000" x2="1724.750488" y2="110.000000" stroke="rgb(100.000000%,0.000000%,0.000000%)" stroke-width="3.000000" />
<text x="1729.750488" y="114.000000" font-size="12" font-family="Arial;">Y42</text>
<line x1="1724.631970" y1="90.000000" x2="1724.631970" y2="110.000000" stroke="rgb(100.000000%,0.000000%,0.000000%)" stroke-width="3.000000" />
<circle cx="1724.631970" cy="100.000000" r="0.000000" fill="rgb(100.000000%,0.000000%,0.000000%)" stroke="rgb(100.000000%,0.000000%,0.000000%)" />
<line x1="1724.552957" y1="100.000000" x2="1724.631970" y2="100.000000" stroke="rgb(100.000000%,0.000000%,0.000000%)" stroke-width="3.000000" />

<line x1="1724.552957" y1="130.000000" x2="1724.671476" y2="130.000000" stroke="rgb(100.000000%,0.000000%,0.000000%)" stroke-width="3.000000" />
<text x="1729.671476" y="134.000000" font-size="12" font-family="Arial;">BDAD3242</text>
<line x1="1724.552957" y1="100.000000" x2="1724.552957" y2="130.000000" stroke="rgb(100.000000%,0.000000%,0.000000%)" stroke-width="3.000000" />
<circle cx="1724.552957" cy="115.000000" r="0.000000" fill="rgb(100.000000%,0.000000%,0.000000%)" stroke="rgb(100.000000%,0.000000%,0.000000%)" />
<line x1="1724.473945" y1="115.000000" x2="1724.552957" y2="115.000000" stroke="rgb(100.000000%,0.000000%,0.000000%)" stroke-width="3.000000" />

<line x1="1724.631970" y1="150.000000" x2="1724.750488" y2="150.000000" stroke="rgb(100.000000%,0.000000%,0.000000%)" stroke-width="3.000000" />
<text x="1729.750488" y="154.000000" font-size="12" font-family="Arial;">BDA190__30_</text>
<line x1="1724.710982" y1="170.000000" x2="1724.829501" y2="170.000000" stroke="rgb(100.000000%,0.000000%,0.000000%)" stroke-width="3.000000" />
<text x="1729.829501" y="174.000000" font-size="12" font-family="Arial;">UMA18</text>
<line x1="1724.789994" y1="190.000000" x2="1804.100350" y2="190.000000" stroke="rgb(100.000000%,0.000000%,0.000000%)" stroke-width="3.000000" />
<text x="1809.100350" y="194.000000" font-size="12" font-family="Arial;">KIK1455</text>
<line x1="1724.789994" y1="210.000000" x2="1804.212116" y2="210.000000" stroke="rgb(100.000000%,0.000000%,0.000000%)" stroke-width="3.000000" />
<text x="1809.212116" y="214.000000" font-size="12" font-family="Arial;">UAC5124</text>
<line x1="1724.789994" y1="190.000000" x2="1724.789994" y2="210.000000" stroke="rgb(100.000000%,0.000000%,0.000000%)" stroke-width="3.000000" />
<circle cx="1724.789994" cy="200.000000" r="0.000000" fill="rgb(100.000000%,0.000000%,0.000000%)" stroke="rgb(100.000000%,0.000000%,0.000000%)" />
<line x1="1724.710982" y1="200.000000" x2="1724.789994" y2="200.000000" stroke="rgb(100.000000%,0.000000%,0.000000%)" stroke-width="3.000000" />

<line x1="1724.710982" y1="170.000000" x2="1724.710982" y2="200.000000" stroke="rgb(100.000000%,0.000000%,0.000000%)" stroke-width="3.000000" />
<circle cx="1724.710982" cy="185.000000" r="0.000000" fill="rgb(100.000000%,0.000000%,0.000000%)" stroke="rgb(100.000000%,0.000000%,0.000000%)" />
<line x1="1724.631970" y1="185.000000" x2="1724.710982" y2="185.000000" stroke="rgb(100.000000%,0.000000%,0.000000%)" stroke-width="3.000000" />

<line x1="1724.631970" y1="150.000000" x2="1724.631970" y2="185.000000" stroke="rgb(100.000000%,0.000000%,0.000000%)" stroke-width="3.000000" />
<circle cx="1724.631970" cy="167.500000" r="0.000000" fill="rgb(100.000000%,0.000000%,0.000000%)" stroke="rgb(100.000000%,0.000000%,0.000000%)" />
<line x1="1724.592464" y1="167.500000" x2="1724.631970" y2="167.500000" stroke="rgb(100.000000%,0.000000%,0.000000%)" stroke-width="3.000000" />

<line x1="1724.592464" y1="230.000000" x2="1724.710982" y2="230.000000" stroke="rgb(100.000000%,0.000000%,0.000000%)" stroke-width="3.000000" />
<text x="1729.710982" y="234.000000" font-size="12" font-family="Arial;">UAC5122</text>
<line x1="1724.592464" y1="167.500000" x2="1724.592464" y2="230.000000" stroke="rgb(100.000000%,0.000000%,0.000000%)" stroke-width="3.000000" />
<circle cx="1724.592464" cy="198.750000" r="0.000000" fill="rgb(100.000000%,0.000000%,0.000000%)" stroke="rgb(100.000000%,0.000000%,0.000000%)" />
<line x1="1724.552957" y1="198.750000" x2="1724.592464" y2="198.750000" stroke="rgb(100.000000%,0.000000%,0.000000%)" stroke-width="3.000000" />

<line x1="1724.789994" y1="250.000000" x2="1804.080620" y2="250.000000" stroke="rgb(100.000000%,0.000000%,0.000000%)" stroke-width="3.000000" />
<text x="1809.080620" y="254.000000" font-size="12" font-family="Arial;">KIK1664</text>
<line x1="1724.789994" y1="270.000000" x2="1724.908513" y2="270.000000" stroke="rgb(100.000000%,0.000000%,0.000000%)" stroke-width="3.000000" />
<text x="1729.908513" y="274.000000" font-size="12" font-family="Arial;">YK128</text>
<line x1="1724.789994" y1="250.000000" x2="1724.789994" y2="270.000000" stroke="rgb(100.000000%,0.000000%,0.000000%)" stroke-width="3.000000" />
<circle cx="1724.789994" cy="260.000000" r="0.000000" fill="rgb(100.000000%,0.000000%,0.000000%)" stroke="rgb(100.000000%,0.000000%,0.000000%)" />
<line x1="1724.710982" y1="260.000000" x2="1724.789994" y2="260.000000" stroke="rgb(100.000000%,0.000000%,0.000000%)" stroke-width="3.000000" />

<line x1="1724.710982" y1="290.000000" x2="1724.829501" y2="290.000000" stroke="rgb(100.000000%,0.000000%,0.000000%)" stroke-width="3.000000" />
<text x="1729.829501" y="294.000000" font-size="12" font-family="Arial;">LIK926</text>
<line x1="1724.710982" y1="260.000000" x2="1724.710982" y2="290.000000" stroke="rgb(100.000000%,0.000000%,0.000000%)" stroke-width="3.000000" />
<circle cx="1724.710982" cy="275.000000" r="0.000000" fill="rgb(100.000000%,0.000000%,0.000000%)" stroke="rgb(100.000000%,0.000000%,0.000000%)" />
<line x1="1724.631970" y1="275.000000" x2="1724.710982" y2="275.000000" stroke="rgb(100.000000%,0.000000%,0.000000%)" stroke-width="3.000000" />

<line x1="1724.631970" y1="310.000000" x2="1804.177501" y2="310.000000" stroke="rgb(100.000000%,0.000000%,0.000000%)" stroke-width="3.000000" />
<text x="1809.177501" y="314.000000" font-size="12" font-family="Arial;">KIK676</text>
<line x1="1724.631970" y1="275.000000" x2="1724.631970" y2="310.000000" stroke="rgb(100.000000%,0.000000%,0.000000%)" stroke-width="3.000000" />
<circle cx="1724.631970" cy="292.500000" r="0.000000" fill="rgb(100.000000%,0.000000%,0.000000%)" stroke="rgb(100.000000%,0.000000%,0.000000%)" />
<line x1="1724.552957" y1="292.500000" x2="1724.631970" y2="292.500000" stroke="rgb(100.000000%,0.000000%,0.000000%)" stroke-width="3.000000" />

<line x1="1724.552957" y1="198.750000" x2="1724.552957" y2="292.500000" stroke="rgb(100.000000%,0.000000%,0.000000%)" stroke-width="3.000000" />
<circle cx="1724.552957" cy="245.625000" r="0.000000" fill="rgb(100.000000%,0.000000%,0.000000%)" stroke="rgb(100.000000%,0.000000%,0.000000%)" />
<line x1="1724.473945" y1="245.625000" x2="1724.552957" y2="245.625000" stroke="rgb(100.000000%,0.000000%,0.000000%)" stroke-width="3.000000" />

<line x1="1724.473945" y1="115.000000" x2="1724.473945" y2="245.625000" stroke="rgb(100.000000%,0.000000%,0.000000%)" stroke-width="3.000000" />
<circle cx="1724.473945" cy="180.312500" r="0.000000" fill="rgb(100.000000%,0.000000%,0.000000%)" stroke="rgb(100.000000%,0.000000%,0.000000%)" />
<line x1="1724.434439" y1="180.312500" x2="1724.473945" y2="180.312500" stroke="rgb(100.000000%,0.000000%,0.000000%)" stroke-width="3.000000" />

<line x1="1724.513451" y1="330.000000" x2="1724.631970" y2="330.000000" stroke="rgb(100.000000%,0.000000%,0.000000%)" stroke-width="3.000000" />
<text x="1729.631970" y="334.000000" font-size="12" font-family="Arial;">TLL57</text>
<line x1="1803.881482" y1="350.000000" x2="1804.000000" y2="350.000000" stroke="rgb(100.000000%,0.000000%,0.000000%)" stroke-width="3.000000" />
<text x="1809.000000" y="354.000000" font-size="12" font-family="Arial;">BDAD3469__5_</text>
<line x1="1803.960494" y1="370.000000" x2="1804.039506" y2="370.000000" stroke="rgb(100.000000%,0.000000%,0.000000%)" stroke-width="3.000000" />
<text x="1809.039506" y="374.000000" font-size="12" font-family="Arial;">BY2</text>
<line x1="1803.960494" y1="390.000000" x2="1804.039506" y2="390.000000" stroke="rgb(100.000000%,0.000000%,0.000000%)" stroke-width="3.000000" />
<text x="1809.039506" y="394.000000" font-size="12" font-family="Arial;">YK193</text>
<line x1="1803.960494" y1="370.000000" x2="1803.960494" y2="390.000000" stroke="rgb(100.000000%,0.000000%,0.000000%)" stroke-width="3.000000" />
<circle cx="1803.960494" cy="380.000000" r="0.000000" fill="rgb(100.000000%,0.000000%,0.000000%)" stroke="rgb(100.000000%,0.000000%,0.000000%)" />
<line x1="1803.881482" y1="380.000000" x2="1803.960494" y2="380.000000" stroke="rgb(100.000000%,0.000000%,0.000000%)" stroke-width="3.000000" />

<line x1="1803.881482" y1="350.000000" x2="1803.881482" y2="380.000000" stroke="rgb(100.000000%,0.000000%,0.000000%)" stroke-width="3.000000" />
<circle cx="1803.881482" cy="365.000000" r="0.000000" fill="rgb(100.000000%,0.000000%,0.000000%)" stroke="rgb(100.000000%,0.000000%,0.000000%)" />
<line x1="1724.710982" y1="365.000000" x2="1803.881482" y2="365.000000" stroke="rgb(100.000000%,0.000000%,0.000000%)" stroke-width="3.000000" />

<line x1="1724.710982" y1="410.000000" x2="1724.829501" y2="410.000000" stroke="rgb(100.000000%,0.000000%,0.000000%)" stroke-width="3.000000" />
<text x="1729.829501" y="414.000000" font-size="12" font-family="Arial;">YK115</text>
<line x1="1724.710982" y1="365.000000" x2="1724.710982" y2="410.000000" stroke="rgb(100.000000%,0.000000%,0.000000%)" stroke-width="3.000000" />
<circle cx="1724.710982" cy="387.500000" r="0.000000" fill="rgb(100.000000%,0.000000%,0.000000%)" stroke="rgb(100.000000%,0.000000%,0.000000%)" />
<line x1="1724.592464" y1="387.500000" x2="1724.710982" y2="387.500000" stroke="rgb(100.000000%,0.000000%,0.000000%)" stroke-width="3.000000" />

<line x1="1724.592464" y1="430.000000" x2="1804.014846" y2="430.000000" stroke="rgb(100.000000%,0.000000%,0.000000%)" stroke-width="3.000000" />
<text x="1809.014846" y="434.000000" font-size="12" font-family="Arial;">EPL14</text>
<line x1="1724.592464" y1="387.500000" x2="1724.592464" y2="430.000000" stroke="rgb(100.000000%,0.000000%,0.000000%)" stroke-width="3.000000" />
<circle cx="1724.592464" cy="408.750000" r="0.000000" fill="rgb(100.000000%,0.000000%,0.000000%)" stroke="rgb(100.000000%,0.000000%,0.000000%)" />
<line x1="1724.513451" y1="408.750000" x2="1724.592464" y2="408.750000" stroke="rgb(100.000000%,0.000000%,0.000000%)" stroke-width="3.000000" />

<line x1="1724.513451" y1="330.000000" x2="1724.513451" y2="408.750000" stroke="rgb(100.000000%,0.000000%,0.000000%)" stroke-width="3.000000" />
<circle cx="1724.513451" cy="369.375000" r="0.000000" fill="rgb(100.000000%,0.000000%,0.000000%)" stroke="rgb(100.000000%,0.000000%,0.000000%)" />
<line x1="1724.434439" y1="369.375000" x2="1724.513451" y2="369.375000" stroke="rgb(100.000000%,0.000000%,0.000000%)" stroke-width="3.000000" />

<line x1="1724.434439" y1="180.312500" x2="1724.434439" y2="369.375000" stroke="rgb(100.000000%,0.000000%,0.000000%)" stroke-width="3.000000" />
<circle cx="1724.434439" cy="274.843750" r="0.000000" fill="rgb(100.000000%,0.000000%,0.000000%)" stroke="rgb(100.000000%,0.000000%,0.000000%)" />
<line x1="1724.394933" y1="274.843750" x2="1724.434439" y2="274.843750" stroke="rgb(100.000000%,0.000000%,0.000000%)" stroke-width="3.000000" />

<line x1="1724.394933" y1="70.000000" x2="1724.394933" y2="274.843750" stroke="rgb(100.000000%,0.000000%,0.000000%)" stroke-width="3.000000" />
<circle cx="1724.394933" cy="172.421875" r="0.000000" fill="rgb(100.000000%,0.000000%,0.000000%)" stroke="rgb(100.000000%,0.000000%,0.000000%)" />
<line x1="1724.315921" y1="172.421875" x2="1724.394933" y2="172.421875" stroke="rgb(100.000000%,0.000000%,0.000000%)" stroke-width="3.000000" />

<line x1="1724.315921" y1="450.000000" x2="1724.394933" y2="450.000000" stroke="rgb(100.000000%,0.000000%,0.000000%)" stroke-width="3.000000" />
<text x="1729.394933" y="454.000000" font-size="12" font-family="Arial;">Kik1199</text>
<line x1="1724.315921" y1="172.421875" x2="1724.315921" y2="450.000000" stroke="rgb(100.000000%,0.000000%,0.000000%)" stroke-width="3.000000" />
<circle cx="1724.315921" cy="311.210938" r="0.000000" fill="rgb(100.000000%,0.000000%,0.000000%)" stroke="rgb(100.000000%,0.000000%,0.000000%)" />
<line x1="1724.276414" y1="311.210938" x2="1724.315921" y2="311.210938" stroke="rgb(100.000000%,0.000000%,0.000000%)" stroke-width="3.000000" />

<line x1="1724.276414" y1="470.000000" x2="1724.355427" y2="470.000000" stroke="rgb(100.000000%,0.000000%,0.000000%)" stroke-width="3.000000" />
<text x="1729.355427" y="474.000000" font-size="12" font-family="Arial;">KIK1671</text>
<line x1="1724.276414" y1="311.210938" x2="1724.276414" y2="470.000000" stroke="rgb(100.000000%,0.000000%,0.000000%)" stroke-width="3.000000" />
<circle cx="1724.276414" cy="390.605469" r="0.000000" fill="rgb(100.000000%,0.000000%,0.000000%)" stroke="rgb(100.000000%,0.000000%,0.000000%)" />
<line x1="1645.401453" y1="390.605469" x2="1724.276414" y2="390.605469" stroke="rgb(100.000000%,0.000000%,0.000000%)" stroke-width="3.000000" />

<line x1="1725.408938" y1="490.000000" x2="1725.487950" y2="490.000000" stroke="rgb(100.000000%,0.000000%,0.000000%)" stroke-width="3.000000" />
<text x="1730.487950" y="494.000000" font-size="12" font-family="Arial;">KIK1200</text>
<line x1="1725.408938" y1="510.000000" x2="1725.487950" y2="510.000000" stroke="rgb(100.000000%,0.000000%,0.000000%)" stroke-width="3.000000" />
<text x="1730.487950" y="514.000000" font-size="12" font-family="Arial;">KIK1660</text>
<line x1="1725.408938" y1="490.000000" x2="1725.408938" y2="510.000000" stroke="rgb(100.000000%,0.000000%,0.000000%)" stroke-width="3.000000" />
<circle cx="1725.408938" cy="500.000000" r="0.000000" fill="rgb(100.000000%,0.000000%,0.000000%)" stroke="rgb(100.000000%,0.000000%,0.000000%)" />
<line x1="1645.401453" y1="500.000000" x2="1725.408938" y2="500.000000" stroke="rgb(100.000000%,0.000000%,0.000000%)" stroke-width="3.000000" />

<line x1="1645.401453" y1="390.605469" x2="1645.401453" y2="500.000000" stroke="rgb(100.000000%,0.000000%,0.000000%)" stroke-width="3.000000" />
<circle cx="1645.401453" cy="445.302734" r="0.000000" fill="rgb(100.000000%,0.000000%,0.000000%)" stroke="rgb(100.000000%,0.000000%,0.000000%)" />
<line x1="1325.118571" y1="445.302734" x2="1645.401453" y2="445.302734" stroke="rgb(99.992318%,0.000000%,0.000000%)" stroke-width="3.000000" />

<line x1="1404.081790" y1="530.000000" x2="1404.160802" y2="530.000000" stroke="rgb(100.000000%,0.000000%,0.000000%)" stroke-width="3.000000" />
<text x="1409.160802" y="534.000000" font-size="12" font-family="Arial;">CRT370</text>
<line x1="1404.081790" y1="550.000000" x2="1404.160802" y2="550.000000" stroke="rgb(100.000000%,0.000000%,0.000000%)" stroke-width="3.000000" />
<text x="1409.160802" y="554.000000" font-size="12" font-family="Arial;">UMA30</text>
<line x1="1404.081790" y1="530.000000" x2="1404.081790" y2="550.000000" stroke="rgb(100.000000%,0.000000%,0.000000%)" stroke-width="3.000000" />
<circle cx="1404.081790" cy="540.000000" r="0.000000" fill="rgb(100.000000%,0.000000%,0.000000%)" stroke="rgb(100.000000%,0.000000%,0.000000%)" />
<line x1="1404.002777" y1="540.000000" x2="1404.081790" y2="540.000000" stroke="rgb(100.000000%,0.000000%,0.000000%)" stroke-width="3.000000" />

<line x1="1404.081790" y1="570.000000" x2="1404.160802" y2="570.000000" stroke="rgb(100.000000%,0.000000%,0.000000%)" stroke-width="3.000000" />
<text x="1409.160802" y="574.000000" font-size="12" font-family="Arial;">EPL8</text>
<line x1="1404.081790" y1="590.000000" x2="1404.160802" y2="590.000000" stroke="rgb(100.000000%,0.000000%,0.000000%)" stroke-width="3.000000" />
<text x="1409.160802" y="594.000000" font-size="12" font-family="Arial;">NDU803</text>
<line x1="1404.081790" y1="570.000000" x2="1404.081790" y2="590.000000" stroke="rgb(100.000000%,0.000000%,0.000000%)" stroke-width="3.000000" />
<circle cx="1404.081790" cy="580.000000" r="0.000000" fill="rgb(100.000000%,0.000000%,0.000000%)" stroke="rgb(100.000000%,0.000000%,0.000000%)" />
<line x1="1404.002777" y1="580.000000" x2="1404.081790" y2="580.000000" stroke="rgb(100.000000%,0.000000%,0.000000%)" stroke-width="3.000000" />

<line x1="1404.002777" y1="540.000000" x2="1404.002777" y2="580.000000" stroke="rgb(100.000000%,0.000000%,0.000000%)" stroke-width="3.000000" />
<circle cx="1404.002777" cy="560.000000" r="0.000000" fill="rgb(100.000000%,0.000000%,0.000000%)" stroke="rgb(100.000000%,0.000000%,0.000000%)" />
<line x1="1325.118571" y1="560.000000" x2="1404.002777" y2="560.000000" stroke="rgb(99.992318%,0.000000%,0.000000%)" stroke-width="3.000000" />

<line x1="1325.118571" y1="445.302734" x2="1325.118571" y2="560.000000" stroke="rgb(99.992318%,0.000000%,0.000000%)" stroke-width="3.000000" />
<circle cx="1325.118571" cy="502.651367" r="0.000000" fill="rgb(99.992318%,0.000000%,0.000000%)" stroke="rgb(99.992318%,0.000000%,0.000000%)" />
<line x1="1165.482430" y1="502.651367" x2="1325.118571" y2="502.651367" stroke="rgb(99.847181%,0.000000%,0.000000%)" stroke-width="3.000000" />

<line x1="1165.482430" y1="50.000000" x2="1165.482430" y2="502.651367" stroke="rgb(99.847181%,0.000000%,0.000000%)" stroke-width="3.000000" />
<circle cx="1165.482430" cy="276.325684" r="0.000000" fill="rgb(99.847181%,0.000000%,0.000000%)" stroke="rgb(99.847181%,0.000000%,0.000000%)" />
<line x1="1086.256831" y1="276.325684" x2="1165.482430" y2="276.325684" stroke="rgb(95.785801%,0.000000%,0.000000%)" stroke-width="3.000000" />

<line x1="1086.256831" y1="610.000000" x2="1086.335844" y2="610.000000" stroke="rgb(95.785801%,0.000000%,0.000000%)" stroke-width="3.000000" />
<text x="1091.335844" y="614.000000" font-size="12" font-family="Arial;">EBO87</text>
<line x1="1086.256831" y1="276.325684" x2="1086.256831" y2="610.000000" stroke="rgb(95.785801%,0.000000%,0.000000%)" stroke-width="3.000000" />
<circle cx="1086.256831" cy="443.162842" r="0.000000" fill="rgb(95.785801%,0.000000%,0.000000%)" stroke="rgb(95.785801%,0.000000%,0.000000%)" />
<line x1="768.560643" y1="443.162842" x2="1086.256831" y2="443.162842" stroke="rgb(19.502502%,0.000000%,0.000000%)" stroke-width="3.000000" />

<line x1="1572.595859" y1="630.000000" x2="1572.714377" y2="630.000000" stroke="rgb(100.000000%,0.000000%,0.000000%)" stroke-width="3.000000" />
<text x="1577.714377" y="634.000000" font-size="12" font-family="Arial;">BY5</text>
<line x1="1572.635365" y1="650.000000" x2="1572.753883" y2="650.000000" stroke="rgb(100.000000%,0.000000%,0.000000%)" stroke-width="3.000000" />
<text x="1577.753883" y="654.000000" font-size="12" font-family="Arial;">YK195</text>
<line x1="1572.635365" y1="670.000000" x2="1572.753883" y2="670.000000" stroke="rgb(100.000000%,0.000000%,0.000000%)" stroke-width="3.000000" />
<text x="1577.753883" y="674.000000" font-size="12" font-family="Arial;">YK156</text>
<line x1="1572.635365" y1="650.000000" x2="1572.635365" y2="670.000000" stroke="rgb(100.000000%,0.000000%,0.000000%)" stroke-width="3.000000" />
<circle cx="1572.635365" cy="660.000000" r="0.000000" fill="rgb(100.000000%,0.000000%,0.000000%)" stroke="rgb(100.000000%,0.000000%,0.000000%)" />
<line x1="1572.595859" y1="660.000000" x2="1572.635365" y2="660.000000" stroke="rgb(100.000000%,0.000000%,0.000000%)" stroke-width="3.000000" />

<line x1="1572.595859" y1="630.000000" x2="1572.595859" y2="660.000000" stroke="rgb(100.000000%,0.000000%,0.000000%)" stroke-width="3.000000" />
<circle cx="1572.595859" cy="645.000000" r="0.000000" fill="rgb(100.000000%,0.000000%,0.000000%)" stroke="rgb(100.000000%,0.000000%,0.000000%)" />
<line x1="1572.556352" y1="645.000000" x2="1572.595859" y2="645.000000" stroke="rgb(100.000000%,0.000000%,0.000000%)" stroke-width="3.000000" />

<line x1="1572.556352" y1="690.000000" x2="1572.674871" y2="690.000000" stroke="rgb(100.000000%,0.000000%,0.000000%)" stroke-width="3.000000" />
<text x="1577.674871" y="694.000000" font-size="12" font-family="Arial;">Y110</text>
<line x1="1572.556352" y1="645.000000" x2="1572.556352" y2="690.000000" stroke="rgb(100.000000%,0.000000%,0.000000%)" stroke-width="3.000000" />
<circle cx="1572.556352" cy="667.500000" r="0.000000" fill="rgb(100.000000%,0.000000%,0.000000%)" stroke="rgb(100.000000%,0.000000%,0.000000%)" />
<line x1="1572.477340" y1="667.500000" x2="1572.556352" y2="667.500000" stroke="rgb(100.000000%,0.000000%,0.000000%)" stroke-width="3.000000" />

<line x1="1572.477340" y1="710.000000" x2="1651.685639" y2="710.000000" stroke="rgb(100.000000%,0.000000%,0.000000%)" stroke-width="3.000000" />
<text x="1656.685639" y="714.000000" font-size="12" font-family="Arial;">YK64</text>
<line x1="1572.477340" y1="667.500000" x2="1572.477340" y2="710.000000" stroke="rgb(100.000000%,0.000000%,0.000000%)" stroke-width="3.000000" />
<circle cx="1572.477340" cy="688.750000" r="0.000000" fill="rgb(100.000000%,0.000000%,0.000000%)" stroke="rgb(100.000000%,0.000000%,0.000000%)" />
<line x1="1572.398328" y1="688.750000" x2="1572.477340" y2="688.750000" stroke="rgb(100.000000%,0.000000%,0.000000%)" stroke-width="3.000000" />

<line x1="1572.398328" y1="730.000000" x2="1572.516846" y2="730.000000" stroke="rgb(100.000000%,0.000000%,0.000000%)" stroke-width="3.000000" />
<text x="1577.516846" y="734.000000" font-size="12" font-family="Arial;">BY12__5_</text>
<line x1="1572.398328" y1="688.750000" x2="1572.398328" y2="730.000000" stroke="rgb(100.000000%,0.000000%,0.000000%)" stroke-width="3.000000" />
<circle cx="1572.398328" cy="709.375000" r="0.000000" fill="rgb(100.000000%,0.000000%,0.000000%)" stroke="rgb(100.000000%,0.000000%,0.000000%)" />
<line x1="1572.319315" y1="709.375000" x2="1572.398328" y2="709.375000" stroke="rgb(100.000000%,0.000000%,0.000000%)" stroke-width="3.000000" />

<line x1="1572.319315" y1="750.000000" x2="1572.437834" y2="750.000000" stroke="rgb(100.000000%,0.000000%,0.000000%)" stroke-width="3.000000" />
<text x="1577.437834" y="754.000000" font-size="12" font-family="Arial;">YK148__2_</text>
<line x1="1572.319315" y1="709.375000" x2="1572.319315" y2="750.000000" stroke="rgb(100.000000%,0.000000%,0.000000%)" stroke-width="3.000000" />
<circle cx="1572.319315" cy="729.687500" r="0.000000" fill="rgb(100.000000%,0.000000%,0.000000%)" stroke="rgb(100.000000%,0.000000%,0.000000%)" />
<line x1="1572.200797" y1="729.687500" x2="1572.319315" y2="729.687500" stroke="rgb(100.000000%,0.000000%,0.000000%)" stroke-width="3.000000" />

<line x1="1572.200797" y1="770.000000" x2="1572.319315" y2="770.000000" stroke="rgb(100.000000%,0.000000%,0.000000%)" stroke-width="3.000000" />
<text x="1577.319315" y="774.000000" font-size="12" font-family="Arial;">YK121</text>
<line x1="1572.200797" y1="729.687500" x2="1572.200797" y2="770.000000" stroke="rgb(100.000000%,0.000000%,0.000000%)" stroke-width="3.000000" />
<circle cx="1572.200797" cy="749.843750" r="0.000000" fill="rgb(100.000000%,0.000000%,0.000000%)" stroke="rgb(100.000000%,0.000000%,0.000000%)" />
<line x1="1572.082278" y1="749.843750" x2="1572.200797" y2="749.843750" stroke="rgb(100.000000%,0.000000%,0.000000%)" stroke-width="3.000000" />

<line x1="1572.082278" y1="790.000000" x2="1651.502635" y2="790.000000" stroke="rgb(100.000000%,0.000000%,0.000000%)" stroke-width="3.000000" />
<text x="1656.502635" y="794.000000" font-size="12" font-family="Arial;">YK196</text>
<line x1="1572.082278" y1="749.843750" x2="1572.082278" y2="790.000000" stroke="rgb(100.000000%,0.000000%,0.000000%)" stroke-width="3.000000" />
<circle cx="1572.082278" cy="769.921875" r="0.000000" fill="rgb(100.000000%,0.000000%,0.000000%)" stroke="rgb(100.000000%,0.000000%,0.000000%)" />
<line x1="1493.305687" y1="769.921875" x2="1572.082278" y2="769.921875" stroke="rgb(100.000000%,0.000000%,0.000000%)" stroke-width="3.000000" />

<line x1="1572.656354" y1="810.000000" x2="1572.735367" y2="810.000000" stroke="rgb(100.000000%,0.000000%,0.000000%)" stroke-width="3.000000" />
<text x="1577.735367" y="814.000000" font-size="12" font-family="Arial;">YK192</text>
<line x1="1572.656354" y1="830.000000" x2="1572.735367" y2="830.000000" stroke="rgb(100.000000%,0.000000%,0.000000%)" stroke-width="3.000000" />
<text x="1577.735367" y="834.000000" font-size="12" font-family="Arial;">YK120</text>
<line x1="1572.656354" y1="810.000000" x2="1572.656354" y2="830.000000" stroke="rgb(100.000000%,0.000000%,0.000000%)" stroke-width="3.000000" />
<circle cx="1572.656354" cy="820.000000" r="0.000000" fill="rgb(100.000000%,0.000000%,0.000000%)" stroke="rgb(100.000000%,0.000000%,0.000000%)" />
<line x1="1493.305687" y1="820.000000" x2="1572.656354" y2="820.000000" stroke="rgb(100.000000%,0.000000%,0.000000%)" stroke-width="3.000000" />

<line x1="1493.305687" y1="769.921875" x2="1493.305687" y2="820.000000" stroke="rgb(100.000000%,0.000000%,0.000000%)" stroke-width="3.000000" />
<circle cx="1493.305687" cy="794.960938" r="0.000000" fill="rgb(100.000000%,0.000000%,0.000000%)" stroke="rgb(100.000000%,0.000000%,0.000000%)" />
<line x1="1493.266181" y1="794.960938" x2="1493.305687" y2="794.960938" stroke="rgb(100.000000%,0.000000%,0.000000%)" stroke-width="3.000000" />

<line x1="1493.266181" y1="850.000000" x2="1493.345193" y2="850.000000" stroke="rgb(100.000000%,0.000000%,0.000000%)" stroke-width="3.000000" />
<text x="1498.345193" y="854.000000" font-size="12" font-family="Arial;">YK152</text>
<line x1="1493.266181" y1="794.960938" x2="1493.266181" y2="850.000000" stroke="rgb(100.000000%,0.000000%,0.000000%)" stroke-width="3.000000" />
<circle cx="1493.266181" cy="822.480469" r="0.000000" fill="rgb(100.000000%,0.000000%,0.000000%)" stroke="rgb(100.000000%,0.000000%,0.000000%)" />
<line x1="1493.147663" y1="822.480469" x2="1493.266181" y2="822.480469" stroke="rgb(99.969443%,0.000000%,0.000000%)" stroke-width="3.000000" />

<line x1="1493.147663" y1="870.000000" x2="1493.226675" y2="870.000000" stroke="rgb(99.969443%,0.000000%,0.000000%)" stroke-width="3.000000" />
<text x="1498.226675" y="874.000000" font-size="12" font-family="Arial;">Y81__4_</text>
<line x1="1493.147663" y1="822.480469" x2="1493.147663" y2="870.000000" stroke="rgb(99.969443%,0.000000%,0.000000%)" stroke-width="3.000000" />
<circle cx="1493.147663" cy="846.240234" r="0.000000" fill="rgb(99.969443%,0.000000%,0.000000%)" stroke="rgb(99.969443%,0.000000%,0.000000%)" />
<line x1="1334.668566" y1="846.240234" x2="1493.147663" y2="846.240234" stroke="rgb(98.901037%,0.000000%,0.000000%)" stroke-width="3.000000" />

<line x1="1334.668566" y1="890.000000" x2="1334.747578" y2="890.000000" stroke="rgb(98.901037%,0.000000%,0.000000%)" stroke-width="3.000000" />
<text x="1339.747578" y="894.000000" font-size="12" font-family="Arial;">YK211</text>
<line x1="1334.668566" y1="846.240234" x2="1334.668566" y2="890.000000" stroke="rgb(98.901037%,0.000000%,0.000000%)" stroke-width="3.000000" />
<circle cx="1334.668566" cy="868.120117" r="0.000000" fill="rgb(98.901037%,0.000000%,0.000000%)" stroke="rgb(98.901037%,0.000000%,0.000000%)" />
<line x1="1334.589554" y1="868.120117" x2="1334.668566" y2="868.120117" stroke="rgb(71.480547%,0.000000%,0.000000%)" stroke-width="3.000000" />

<line x1="1334.589554" y1="910.000000" x2="1334.668566" y2="910.000000" stroke="rgb(71.480547%,0.000000%,0.000000%)" stroke-width="3.000000" />
<text x="1339.668566" y="914.000000" font-size="12" font-family="Arial;">Y74</text>
<line x1="1334.589554" y1="868.120117" x2="1334.589554" y2="910.000000" stroke="rgb(71.480547%,0.000000%,0.000000%)" stroke-width="3.000000" />
<circle cx="1334.589554" cy="889.060059" r="0.000000" fill="rgb(71.480547%,0.000000%,0.000000%)" stroke="rgb(71.480547%,0.000000%,0.000000%)" />
<line x1="768.560643" y1="889.060059" x2="1334.589554" y2="889.060059" stroke="rgb(19.502502%,0.000000%,0.000000%)" stroke-width="3.000000" />

<line x1="768.560643" y1="443.162842" x2="768.560643" y2="889.060059" stroke="rgb(19.502502%,0.000000%,0.000000%)" stroke-width="3.000000" />
<circle cx="768.560643" cy="666.111450" r="0.000000" fill="rgb(19.502502%,0.000000%,0.000000%)" stroke="rgb(19.502502%,0.000000%,0.000000%)" />
<text x="763.560643" y="661.111450" font-size="12" font-family="Arial;" text-anchor="end">0.80</text>
<line x1="20.000000" y1="666.111450" x2="768.560643" y2="666.111450" stroke="rgb(0.629087%,0.000000%,0.000000%)" stroke-width="3.000000" />

<line x1="20.000000" y1="30.000000" x2="20.000000" y2="666.111450" stroke="rgb(0.629087%,0.000000%,0.000000%)" stroke-width="3.000000" />
<circle cx="20.000000" cy="348.055725" r="0.000000" fill="rgb(0.629087%,0.000000%,0.000000%)" stroke="rgb(0.629087%,0.000000%,0.000000%)" />
<text x="15.000000" y="343.055725" font-size="12" font-family="Arial;" text-anchor="end">0.99</text>
</svg>
