<svg xmlns="http://www.w3.org/2000/svg"  width="345" height="285" >
<g>
<line x1="40" y1="40"  x2="40" y2="240" style=" stroke: black;"/>
<line x1="40" y1="240"  x2="340" y2="240" style=" stroke: black;"/>
<line x1="37" y1="220"  x2="40" y2="220" style=" stroke: black;"/>
<text x="8" y="220" style="font-family: monospace; font-size: 8px;">0.03</text>
<line x1="37" y1="200"  x2="40" y2="200" style=" stroke: black;"/>
<text x="8" y="200" style="font-family: monospace; font-size: 8px;">0.05</text>
<line x1="37" y1="180"  x2="40" y2="180" style=" stroke: black;"/>
<text x="8" y="180" style="font-family: monospace; font-size: 8px;">0.08</text>
<line x1="37" y1="160"  x2="40" y2="160" style=" stroke: black;"/>
<text x="8" y="160" style="font-family: monospace; font-size: 8px;">0.10</text>
<line x1="37" y1="140"  x2="40" y2="140" style=" stroke: black;"/>
<text x="8" y="140" style="font-family: monospace; font-size: 8px;">0.13</text>
<line x1="37" y1="120"  x2="40" y2="120" style=" stroke: black;"/>
<text x="8" y="120" style="font-family: monospace; font-size: 8px;">0.15</text>
<line x1="37" y1="100"  x2="40" y2="100" style=" stroke: black;"/>
<text x="8" y="100" style="font-family: monospace; font-size: 8px;">0.18</text>
<line x1="37" y1="80"  x2="40" y2="80" style=" stroke: black;"/>
<text x="8" y="80" style="font-family: monospace; font-size: 8px;">0.20</text>
<line x1="37" y1="60"  x2="40" y2="60" style=" stroke: black;"/>
<text x="8" y="60" style="font-family: monospace; font-size: 8px;">0.23</text>
<line x1="37" y1="40"  x2="40" y2="40" style=" stroke: black;"/>
<text x="8" y="40" style="font-family: monospace; font-size: 8px;">0.25</text>
<line x1="70" y1="240"  x2="70" y2="245" style=" stroke: black;"/>
<text x="70" y="245" transform="rotate(90,70,245)" style="font-family: monospace; font-size: 8px;">2300</text>
<line x1="100" y1="240"  x2="100" y2="245" style=" stroke: black;"/>
<text x="100" y="245" transform="rotate(90,100,245)" style="font-family: monospace; font-size: 8px;">4600</text>
<line x1="130" y1="240"  x2="130" y2="245" style=" stroke: black;"/>
<text x="130" y="245" transform="rotate(90,130,245)" style="font-family: monospace; font-size: 8px;">6900</text>
<line x1="160" y1="240"  x2="160" y2="245" style=" stroke: black;"/>
<text x="160" y="245" transform="rotate(90,160,245)" style="font-family: monospace; font-size: 8px;">9200</text>
<line x1="190" y1="240"  x2="190" y2="245" style=" stroke: black;"/>
<text x="190" y="245" transform="rotate(90,190,245)" style="font-family: monospace; font-size: 8px;">11500</text>
<line x1="220" y1="240"  x2="220" y2="245" style=" stroke: black;"/>
<text x="220" y="245" transform="rotate(90,220,245)" style="font-family: monospace; font-size: 8px;">13800</text>
<line x1="250" y1="240"  x2="250" y2="245" style=" stroke: black;"/>
<text x="250" y="245" transform="rotate(90,250,245)" style="font-family: monospace; font-size: 8px;">16100</text>
<line x1="280" y1="240"  x2="280" y2="245" style=" stroke: black;"/>
<text x="280" y="245" transform="rotate(90,280,245)" style="font-family: monospace; font-size: 8px;">18400</text>
<line x1="310" y1="240"  x2="310" y2="245" style=" stroke: black;"/>
<text x="310" y="245" transform="rotate(90,310,245)" style="font-family: monospace; font-size: 8px;">20700</text>
<line x1="340" y1="240"  x2="340" y2="245" style=" stroke: black;"/>
<text x="340" y="245" transform="rotate(90,340,245)" style="font-family: monospace; font-size: 8px;">23000</text>
<text x="5" y="8" style="font-family: monospace; font-size: 10px;">Dist. Dt</text>
<text x="320" y="230" style="font-family: monospace; font-size: 10px;">Rank</text>
<polyline style="stroke: #00a5eb; stroke-width:1;fill: none;"  points="40 240,41 240,42 240,43 240,44 240,45 240,46 240,47 240,48 240,49 240,50 240,51 240,52 240,53 240,54 240,55 240,56 240,57 240,58 240,59 240,60 240,61 240,62 240,63 240,64 240,65 240,66 240,67 240,68 240,69 240,70 240,71 240,72 240,73 240,74 240,75 240,76 240,77 240,78 240,79 240,80 240,81 240,82 240,82 237,83 237,84 237,85 237,86 237,87 237,88 237,89 237,90 237,91 237,92 237,93 237,94 237,95 237,96 237,97 237,98 237,99 237,100 237,101 237,102 237,103 237,103 235,104 235,105 235,106 235,107 235,108 235,109 235,110 235,111 235,112 235,113 235,114 235,115 235,116 235,117 235,118 235,119 235,120 235,121 235,122 235,123 235,124 235,125 235,126 235,127 235,127 233,128 233,129 233,130 233,131 233,132 233,133 233,134 233,135 233,136 233,137 233,138 233,138 231,139 231,140 231,141 231,141 229,142 229,143 229,143 227,143 225,144 225,144 224,144 223,144 222,144 221,144 201,144 200,144 199,145 199,146 199,147 199,148 199,148 198,149 198,150 198,151 198,152 198,152 197,152 196,153 196,154 196,155 196,156 196,157 196,158 196,159 196,160 196,161 196,162 196,163 196,164 196,165 196,166 196,167 196,168 196,169 196,170 196,171 196,172 196,173 196,174 196,175 196,176 196,177 196,178 196,179 196,180 196,181 196,182 196,183 196,184 196,185 196,186 196,187 196,188 196,189 196,190 196,190 195,190 194,191 194,192 194,193 194,194 194,195 194,196 194,197 194,198 194,199 194,200 194,201 194,202 194,203 194,204 194,205 194,206 194,207 194,208 194,209 194,210 194,211 194,212 194,213 194,214 194,215 194,215 193,216 193,216 192,217 192,218 192,219 192,220 192,221 192,222 192,223 192,224 192,225 192,226 192,227 192,227 191,227 190,228 190,229 190,230 190,230 189,230 187,231 187,231 186,232 185,232 184,232 183,232 182,233 182,234 182,234 181,234 179,235 179,236 179,237 179,237 177,238 177,239 177,239 175,240 175,241 175,241 172,241 170,241 169,241 168,241 167,241 165,241 163,241 162,241 160,241 158,241 157,241 155,242 155,242 153,242 152,242 151,242 150,242 148,242 146,242 145,242 143,242 141,242 140,243 140,243 139,243 138,243 136,243 135,243 134,243 133,244 133,244 131,244 130,245 130,245 129,245 128,245 126,246 126,246 125,246 124,246 123,246 122,246 121,246 120,246 119,246 118,246 115,246 113,246 112,246 111,246 110,246 109,246 108,246 107,246 106,246 105,247 105,247 104,247 103,247 102,248 102,248 101,248 100,248 99,248 98,249 98,249 97,250 97,250 96,251 96,251 95,251 94,252 94,253 94,254 94,254 93,255 93,255 92,255 91,256 91,257 91,258 91,259 91,259 90,260 90,260 89,261 89,262 89,263 89,263 88,264 88,265 88,265 87,266 87,266 86,267 86,267 85,268 85,269 85,269 84,269 83,270 83,271 83,272 83,273 83,273 82,274 82,274 81,275 81,276 81,277 81,277 80,278 80,279 80,280 80,280 79,281 79,281 78,282 78,283 78,284 78,285 78,286 78,287 78,288 78,288 77,289 77,289 76,289 75,290 75,291 75,292 75,293 75,294 75,295 75,296 75,297 75,298 75,299 75,300 75,301 75,301 74,302 74,303 74,303 73,303 72,304 72,305 72,306 72,307 72,308 72,309 72,310 72,311 72,311 71,312 71,313 71,314 71,314 70,315 70,316 70,317 70,318 70,319 70,320 70,320 69,321 69,321 68,322 67,323 67,324 67,325 67,325 66,326 66,327 66,327 65,327 64,328 64,328 63,329 63,329 62,329 61,330 61,331 61,332 61,332 60,332 59,333 59,333 58,334 58,335 58,335 57,336 57,336 56,337 56,338 56,339 56,339 55,339 54,339 53,339 52,339 51,339 50,339 42,339 40"/><line id="CutDis10" visibility="hidden" x1="40" y1="233"  x2="340" y2="233" style=" stroke: red;"/>
<line id="CutDis9" visibility="hidden" x1="40" y1="120"  x2="340" y2="120" style=" stroke: red;"/>
<line id="CutDis8" visibility="hidden" x1="40" y1="227"  x2="340" y2="227" style=" stroke: red;"/>
<line id="CutDis7" visibility="hidden" x1="40" y1="163"  x2="340" y2="163" style=" stroke: red;"/>
<line id="CutDis6" visibility="hidden" x1="40" y1="231"  x2="340" y2="231" style=" stroke: red;"/>
<line id="CutDis5" visibility="hidden" x1="40" y1="200"  x2="340" y2="200" style=" stroke: red;"/>
<line id="CutDis4" visibility="hidden" x1="40" y1="144"  x2="340" y2="144" style=" stroke: red;"/>
<line id="CutDis3" visibility="hidden" x1="40" y1="213"  x2="340" y2="213" style=" stroke: red;"/>
<line id="CutDis2" visibility="hidden" x1="40" y1="168"  x2="340" y2="168" style=" stroke: red;"/>
<line id="CutDis1" visibility="hidden" x1="40" y1="157"  x2="340" y2="157" style=" stroke: red;"/>

</g>
</svg>
